<svg width="288" height="222" viewBox="0 0 288 222" fill="none" xmlns="http://www.w3.org/2000/svg">
<g clip-path="url(#clip0)">
<path d="M66.9476 193.027H73.4026V195H64.4769V180.781H66.9476V193.027ZM77.9046 195H75.4437V180.781H77.9046V195ZM92.221 195H89.7503L83.4124 184.912V195H80.9417V180.781H83.4124L89.7698 190.908V180.781H92.221V195ZM95.1409 195V180.781H99.3401C100.597 180.781 101.71 181.061 102.68 181.621C103.657 182.181 104.412 182.975 104.946 184.004C105.479 185.033 105.746 186.211 105.746 187.539V188.252C105.746 189.6 105.476 190.785 104.936 191.807C104.402 192.829 103.637 193.617 102.641 194.17C101.651 194.723 100.515 195 99.2327 195H95.1409ZM97.6116 182.773V193.027H99.223C100.519 193.027 101.511 192.624 102.201 191.816C102.898 191.003 103.253 189.837 103.266 188.32V187.529C103.266 185.986 102.931 184.808 102.26 183.994C101.589 183.18 100.616 182.773 99.3401 182.773H97.6116ZM115.951 191.689H110.444L109.291 195H106.723L112.094 180.781H114.311L119.692 195H117.114L115.951 191.689ZM111.137 189.697H115.258L113.198 183.799L111.137 189.697ZM123.784 193.027H130.239V195H121.313V180.781H123.784V193.027ZM135.131 191.904L138.744 180.781H141.459L136.342 195H133.95L128.852 180.781H131.557L135.131 191.904ZM150.287 191.689H144.78L143.627 195H141.059L146.43 180.781H148.647L154.028 195H151.45L150.287 191.689ZM145.473 189.697H149.594L147.534 183.799L145.473 189.697ZM165.854 189.521H163.1V195H160.629V180.781H165.629C167.27 180.781 168.536 181.149 169.428 181.885C170.32 182.62 170.766 183.685 170.766 185.078C170.766 186.029 170.535 186.826 170.073 187.471C169.617 188.109 168.979 188.6 168.159 188.945L171.352 194.873V195H168.705L165.854 189.521ZM163.1 187.539H165.639C166.472 187.539 167.123 187.331 167.592 186.914C168.061 186.491 168.295 185.915 168.295 185.186C168.295 184.424 168.077 183.835 167.641 183.418C167.211 183.001 166.567 182.786 165.707 182.773H163.1V187.539ZM184.457 188.262C184.457 189.655 184.216 190.879 183.735 191.934C183.253 192.982 182.563 193.789 181.664 194.355C180.772 194.915 179.744 195.195 178.578 195.195C177.426 195.195 176.397 194.915 175.492 194.355C174.594 193.789 173.897 192.985 173.403 191.943C172.914 190.902 172.667 189.701 172.66 188.34V187.539C172.66 186.152 172.905 184.928 173.393 183.867C173.888 182.806 174.581 181.995 175.473 181.436C176.371 180.869 177.4 180.586 178.559 180.586C179.718 180.586 180.743 180.866 181.635 181.426C182.534 181.979 183.227 182.78 183.715 183.828C184.203 184.87 184.451 186.084 184.457 187.471V188.262ZM181.987 187.52C181.987 185.944 181.687 184.736 181.088 183.896C180.496 183.057 179.653 182.637 178.559 182.637C177.491 182.637 176.655 183.057 176.049 183.896C175.45 184.73 175.144 185.911 175.131 187.441V188.262C175.131 189.824 175.434 191.032 176.039 191.885C176.651 192.738 177.498 193.164 178.578 193.164C179.672 193.164 180.512 192.747 181.098 191.914C181.69 191.081 181.987 189.863 181.987 188.262V187.52ZM197.768 190.371C197.625 191.888 197.065 193.073 196.088 193.926C195.112 194.772 193.813 195.195 192.192 195.195C191.059 195.195 190.06 194.928 189.194 194.395C188.334 193.854 187.67 193.089 187.201 192.1C186.733 191.11 186.489 189.961 186.469 188.652V187.324C186.469 185.983 186.707 184.801 187.182 183.779C187.657 182.757 188.338 181.969 189.223 181.416C190.115 180.863 191.144 180.586 192.309 180.586C193.878 180.586 195.141 181.012 196.098 181.865C197.055 182.718 197.612 183.923 197.768 185.479H195.307C195.19 184.456 194.89 183.721 194.409 183.271C193.933 182.816 193.233 182.588 192.309 182.588C191.235 182.588 190.408 182.982 189.828 183.77C189.256 184.551 188.963 185.7 188.95 187.217V188.477C188.95 190.013 189.223 191.185 189.77 191.992C190.323 192.799 191.131 193.203 192.192 193.203C193.162 193.203 193.891 192.985 194.379 192.549C194.867 192.113 195.177 191.387 195.307 190.371H197.768ZM211.274 195H208.813V188.682H202.455V195H199.985V180.781H202.455V186.699H208.813V180.781H211.274V195ZM222.338 191.689H216.83L215.678 195H213.11L218.481 180.781H220.698L226.078 195H223.5L222.338 191.689ZM217.524 189.697H221.645L219.584 183.799L217.524 189.697Z" fill="white"/>
<path d="M66.9476 193.027H66.9095V193.065H66.9476V193.027ZM73.4026 193.027H73.4408V192.989H73.4026V193.027ZM73.4026 195V195.038H73.4408V195H73.4026ZM64.4769 195H64.4388V195.038H64.4769V195ZM64.4769 180.781V180.743H64.4388V180.781H64.4769ZM66.9476 180.781H66.9857V180.743H66.9476V180.781ZM66.9476 193.065H73.4026V192.989H66.9476V193.065ZM73.3645 193.027V195H73.4408V193.027H73.3645ZM73.4026 194.962H64.4769V195.038H73.4026V194.962ZM64.515 195V180.781H64.4388V195H64.515ZM64.4769 180.819H66.9476V180.743H64.4769V180.819ZM66.9095 180.781V193.027H66.9857V180.781H66.9095ZM77.9046 195V195.038H77.9427V195H77.9046ZM75.4437 195H75.4056V195.038H75.4437V195ZM75.4437 180.781V180.743H75.4056V180.781H75.4437ZM77.9046 180.781H77.9427V180.743H77.9046V180.781ZM77.9046 194.962H75.4437V195.038H77.9046V194.962ZM75.4818 195V180.781H75.4056V195H75.4818ZM75.4437 180.819H77.9046V180.743H75.4437V180.819ZM77.8665 180.781V195H77.9427V180.781H77.8665ZM92.221 195V195.038H92.2591V195H92.221ZM89.7503 195L89.718 195.02L89.7292 195.038H89.7503V195ZM83.4124 184.912L83.4447 184.892L83.3743 184.78V184.912H83.4124ZM83.4124 195V195.038H83.4505V195H83.4124ZM80.9417 195H80.9036V195.038H80.9417V195ZM80.9417 180.781V180.743H80.9036V180.781H80.9417ZM83.4124 180.781L83.4447 180.761L83.4335 180.743H83.4124V180.781ZM89.7698 190.908L89.7376 190.928L89.8079 191.041V190.908H89.7698ZM89.7698 180.781V180.743H89.7317V180.781H89.7698ZM92.221 180.781H92.2591V180.743H92.221V180.781ZM92.221 194.962H89.7503V195.038H92.221V194.962ZM89.7826 194.98L83.4447 184.892L83.3802 184.932L89.718 195.02L89.7826 194.98ZM83.3743 184.912V195H83.4505V184.912H83.3743ZM83.4124 194.962H80.9417V195.038H83.4124V194.962ZM80.9798 195V180.781H80.9036V195H80.9798ZM80.9417 180.819H83.4124V180.743H80.9417V180.819ZM83.3801 180.802L89.7376 190.928L89.8021 190.888L83.4447 180.761L83.3801 180.802ZM89.8079 190.908V180.781H89.7317V190.908H89.8079ZM89.7698 180.819H92.221V180.743H89.7698V180.819ZM92.1829 180.781V195H92.2591V180.781H92.1829ZM95.1409 195H95.1028V195.038H95.1409V195ZM95.1409 180.781V180.743H95.1028V180.781H95.1409ZM102.68 181.621L102.661 181.654L102.661 181.654L102.68 181.621ZM104.936 191.807L104.902 191.789L104.902 191.789L104.936 191.807ZM102.641 194.17L102.622 194.137L102.622 194.137L102.641 194.17ZM97.6116 182.773V182.735H97.5735V182.773H97.6116ZM97.6116 193.027H97.5735V193.065H97.6116V193.027ZM102.201 191.816L102.173 191.792L102.173 191.792L102.201 191.816ZM103.266 188.32L103.304 188.321V188.32H103.266ZM95.179 195V180.781H95.1028V195H95.179ZM95.1409 180.819H99.3401V180.743H95.1409V180.819ZM99.3401 180.819C100.591 180.819 101.697 181.098 102.661 181.654L102.699 181.588C101.723 181.024 100.603 180.743 99.3401 180.743V180.819ZM102.661 181.654C103.631 182.21 104.381 182.999 104.912 184.021L104.979 183.986C104.442 182.951 103.682 182.152 102.699 181.588L102.661 181.654ZM104.912 184.021C105.442 185.044 105.708 186.216 105.708 187.539H105.785C105.785 186.206 105.516 185.021 104.979 183.986L104.912 184.021ZM105.708 187.539V188.252H105.785V187.539H105.708ZM105.708 188.252C105.708 189.594 105.439 190.773 104.902 191.789L104.97 191.824C105.513 190.796 105.785 189.605 105.785 188.252H105.708ZM104.902 191.789C104.372 192.805 103.612 193.587 102.622 194.137L102.659 194.203C103.662 193.646 104.432 192.853 104.97 191.824L104.902 191.789ZM102.622 194.137C101.639 194.686 100.51 194.962 99.2327 194.962V195.038C100.521 195.038 101.664 194.76 102.66 194.203L102.622 194.137ZM99.2327 194.962H95.1409V195.038H99.2327V194.962ZM97.5735 182.773V193.027H97.6497V182.773H97.5735ZM97.6116 193.065H99.223V192.989H97.6116V193.065ZM99.223 193.065C100.527 193.065 101.532 192.659 102.23 191.841L102.173 191.792C101.491 192.589 100.51 192.989 99.223 192.989V193.065ZM102.23 191.841C102.935 191.018 103.291 189.843 103.304 188.321L103.228 188.32C103.215 189.832 102.861 190.987 102.173 191.792L102.23 191.841ZM103.304 188.32V187.529H103.228V188.32H103.304ZM103.304 187.529C103.304 185.981 102.968 184.793 102.289 183.97L102.231 184.018C102.894 184.823 103.228 185.991 103.228 187.529H103.304ZM102.289 183.97C101.61 183.145 100.625 182.735 99.3401 182.735V182.812C100.607 182.812 101.569 183.215 102.231 184.018L102.289 183.97ZM99.3401 182.735H97.6116V182.812H99.3401V182.735ZM115.951 191.689L115.987 191.677L115.978 191.651H115.951V191.689ZM110.444 191.689V191.651H110.417L110.408 191.677L110.444 191.689ZM109.291 195V195.038H109.318L109.327 195.013L109.291 195ZM106.723 195L106.687 194.987L106.668 195.038H106.723V195ZM112.094 180.781V180.743H112.068L112.058 180.768L112.094 180.781ZM114.311 180.781L114.346 180.768L114.337 180.743H114.311V180.781ZM119.692 195V195.038H119.747L119.727 194.987L119.692 195ZM117.114 195L117.078 195.013L117.087 195.038H117.114V195ZM111.137 189.697L111.101 189.685L111.083 189.735H111.137V189.697ZM115.258 189.697V189.735H115.312L115.294 189.685L115.258 189.697ZM113.198 183.799L113.234 183.786L113.198 183.683L113.162 183.786L113.198 183.799ZM115.951 191.651H110.444V191.728H115.951V191.651ZM110.408 191.677L109.255 194.987L109.327 195.013L110.48 191.702L110.408 191.677ZM109.291 194.962H106.723V195.038H109.291V194.962ZM106.759 195.013L112.13 180.795L112.058 180.768L106.687 194.987L106.759 195.013ZM112.094 180.819H114.311V180.743H112.094V180.819ZM114.275 180.795L119.656 195.013L119.727 194.987L114.346 180.768L114.275 180.795ZM119.692 194.962H117.114V195.038H119.692V194.962ZM117.15 194.987L115.987 191.677L115.916 191.702L117.078 195.013L117.15 194.987ZM111.137 189.735H115.258V189.659H111.137V189.735ZM115.294 189.685L113.234 183.786L113.162 183.811L115.222 189.71L115.294 189.685ZM113.162 183.786L111.101 189.685L111.173 189.71L113.234 183.811L113.162 183.786ZM123.784 193.027H123.745V193.065H123.784V193.027ZM130.239 193.027H130.277V192.989H130.239V193.027ZM130.239 195V195.038H130.277V195H130.239ZM121.313 195H121.275V195.038H121.313V195ZM121.313 180.781V180.743H121.275V180.781H121.313ZM123.784 180.781H123.822V180.743H123.784V180.781ZM123.784 193.065H130.239V192.989H123.784V193.065ZM130.2 193.027V195H130.277V193.027H130.2ZM130.239 194.962H121.313V195.038H130.239V194.962ZM121.351 195V180.781H121.275V195H121.351ZM121.313 180.819H123.784V180.743H121.313V180.819ZM123.745 180.781V193.027H123.822V180.781H123.745ZM135.131 191.904L135.095 191.916L135.131 192.028L135.167 191.916L135.131 191.904ZM138.744 180.781V180.743H138.717L138.708 180.769L138.744 180.781ZM141.459 180.781L141.495 180.794L141.513 180.743H141.459V180.781ZM136.342 195V195.038H136.369L136.378 195.013L136.342 195ZM133.95 195L133.914 195.013L133.923 195.038H133.95V195ZM128.852 180.781V180.743H128.798L128.816 180.794L128.852 180.781ZM131.557 180.781L131.593 180.77L131.585 180.743H131.557V180.781ZM135.167 191.916L138.781 180.793L138.708 180.769L135.095 191.893L135.167 191.916ZM138.744 180.819H141.459V180.743H138.744V180.819ZM141.423 180.768L136.306 194.987L136.378 195.013L141.495 180.794L141.423 180.768ZM136.342 194.962H133.95V195.038H136.342V194.962ZM133.985 194.987L128.888 180.768L128.816 180.794L133.914 195.013L133.985 194.987ZM128.852 180.819H131.557V180.743H128.852V180.819ZM131.521 180.793L135.095 191.916L135.167 191.893L131.593 180.77L131.521 180.793ZM150.287 191.689L150.323 191.677L150.314 191.651H150.287V191.689ZM144.78 191.689V191.651H144.753L144.744 191.677L144.78 191.689ZM143.627 195V195.038H143.654L143.663 195.013L143.627 195ZM141.059 195L141.023 194.987L141.004 195.038H141.059V195ZM146.43 180.781V180.743H146.404L146.394 180.768L146.43 180.781ZM148.647 180.781L148.682 180.768L148.673 180.743H148.647V180.781ZM154.028 195V195.038H154.083L154.063 194.987L154.028 195ZM151.45 195L151.414 195.013L151.423 195.038H151.45V195ZM145.473 189.697L145.437 189.685L145.419 189.735H145.473V189.697ZM149.594 189.697V189.735H149.648L149.63 189.685L149.594 189.697ZM147.534 183.799L147.569 183.786L147.534 183.683L147.498 183.786L147.534 183.799ZM150.287 191.651H144.78V191.728H150.287V191.651ZM144.744 191.677L143.591 194.987L143.663 195.013L144.816 191.702L144.744 191.677ZM143.627 194.962H141.059V195.038H143.627V194.962ZM141.095 195.013L146.466 180.795L146.394 180.768L141.023 194.987L141.095 195.013ZM146.43 180.819H148.647V180.743H146.43V180.819ZM148.611 180.795L153.992 195.013L154.063 194.987L148.682 180.768L148.611 180.795ZM154.028 194.962H151.45V195.038H154.028V194.962ZM151.485 194.987L150.323 191.677L150.251 191.702L151.414 195.013L151.485 194.987ZM145.473 189.735H149.594V189.659H145.473V189.735ZM149.63 189.685L147.569 183.786L147.498 183.811L149.558 189.71L149.63 189.685ZM147.498 183.786L145.437 189.685L145.509 189.71L147.569 183.811L147.498 183.786ZM165.854 189.521L165.888 189.504L165.877 189.483H165.854V189.521ZM163.1 189.521V189.483H163.062V189.521H163.1ZM163.1 195V195.038H163.138V195H163.1ZM160.629 195H160.591V195.038H160.629V195ZM160.629 180.781V180.743H160.591V180.781H160.629ZM170.073 187.471L170.042 187.448L170.042 187.449L170.073 187.471ZM168.159 188.945L168.144 188.91L168.105 188.926L168.125 188.963L168.159 188.945ZM171.352 194.873H171.39V194.863L171.385 194.855L171.352 194.873ZM171.352 195V195.038H171.39V195H171.352ZM168.705 195L168.672 195.018L168.682 195.038H168.705V195ZM163.1 187.539H163.062V187.577H163.1V187.539ZM167.592 186.914L167.617 186.943L167.618 186.942L167.592 186.914ZM167.641 183.418L167.614 183.445L167.615 183.446L167.641 183.418ZM165.707 182.773L165.708 182.735H165.707V182.773ZM163.1 182.773V182.735H163.062V182.773H163.1ZM165.854 189.483H163.1V189.56H165.854V189.483ZM163.062 189.521V195H163.138V189.521H163.062ZM163.1 194.962H160.629V195.038H163.1V194.962ZM160.667 195V180.781H160.591V195H160.667ZM160.629 180.819H165.629V180.743H160.629V180.819ZM165.629 180.819C167.265 180.819 168.521 181.186 169.404 181.914L169.452 181.855C168.551 181.112 167.275 180.743 165.629 180.743V180.819ZM169.404 181.914C170.285 182.641 170.728 183.694 170.728 185.078H170.804C170.804 183.676 170.355 182.6 169.452 181.855L169.404 181.914ZM170.728 185.078C170.728 186.022 170.498 186.812 170.042 187.448L170.104 187.493C170.571 186.841 170.804 186.035 170.804 185.078H170.728ZM170.042 187.449C169.59 188.08 168.958 188.567 168.144 188.91L168.173 188.98C168.999 188.633 169.643 188.137 170.104 187.493L170.042 187.449ZM168.125 188.963L171.318 194.891L171.385 194.855L168.192 188.927L168.125 188.963ZM171.314 194.873V195H171.39V194.873H171.314ZM171.352 194.962H168.705V195.038H171.352V194.962ZM168.739 194.982L165.888 189.504L165.82 189.539L168.672 195.018L168.739 194.982ZM163.1 187.577H165.639V187.501H163.1V187.577ZM165.639 187.577C166.479 187.577 167.14 187.367 167.617 186.943L167.567 186.886C167.107 187.294 166.466 187.501 165.639 187.501V187.577ZM167.618 186.942C168.096 186.511 168.333 185.924 168.333 185.186H168.257C168.257 185.906 168.026 186.471 167.567 186.886L167.618 186.942ZM168.333 185.186C168.333 184.416 168.113 183.816 167.667 183.39L167.615 183.446C168.041 183.853 168.257 184.431 168.257 185.186H168.333ZM167.667 183.391C167.228 182.965 166.573 182.748 165.708 182.735L165.707 182.812C166.561 182.824 167.194 183.038 167.614 183.445L167.667 183.391ZM165.707 182.735H163.1V182.812H165.707V182.735ZM163.062 182.773V187.539H163.138V182.773H163.062ZM183.735 191.934L183.769 191.95L183.769 191.949L183.735 191.934ZM181.664 194.355L181.685 194.388L181.685 194.388L181.664 194.355ZM175.492 194.355L175.472 194.388L175.472 194.388L175.492 194.355ZM173.403 191.943L173.368 191.96L173.368 191.96L173.403 191.943ZM172.66 188.34H172.622V188.34L172.66 188.34ZM173.393 183.867L173.358 183.851L173.358 183.851L173.393 183.867ZM175.473 181.436L175.493 181.468L175.493 181.468L175.473 181.436ZM181.635 181.426L181.615 181.458L181.615 181.458L181.635 181.426ZM183.715 183.828L183.681 183.844L183.681 183.844L183.715 183.828ZM184.457 187.471H184.495V187.471L184.457 187.471ZM181.088 183.896L181.057 183.918L181.057 183.919L181.088 183.896ZM176.049 183.896L176.018 183.874L176.018 183.874L176.049 183.896ZM175.131 187.441L175.093 187.441V187.441H175.131ZM176.039 191.885L176.008 191.907L176.008 191.907L176.039 191.885ZM181.098 191.914L181.067 191.892L181.067 191.892L181.098 191.914ZM184.419 188.262C184.419 189.651 184.179 190.869 183.7 191.918L183.769 191.949C184.254 190.889 184.495 189.659 184.495 188.262H184.419ZM183.7 191.918C183.221 192.96 182.536 193.761 181.644 194.323L181.685 194.388C182.59 193.817 183.285 193.004 183.769 191.95L183.7 191.918ZM181.644 194.323C180.759 194.879 179.737 195.157 178.578 195.157V195.233C179.75 195.233 180.786 194.952 181.685 194.388L181.644 194.323ZM178.578 195.157C177.433 195.157 176.411 194.879 175.513 194.323L175.472 194.388C176.384 194.952 177.42 195.233 178.578 195.233V195.157ZM175.513 194.323C174.621 193.761 173.929 192.963 173.437 191.927L173.368 191.96C173.866 193.007 174.567 193.817 175.472 194.388L175.513 194.323ZM173.437 191.927C172.952 190.891 172.705 189.696 172.699 188.34L172.622 188.34C172.629 189.705 172.877 190.912 173.368 191.96L173.437 191.927ZM172.699 188.34V187.539H172.622V188.34H172.699ZM172.699 187.539C172.699 186.157 172.942 184.938 173.427 183.883L173.358 183.851C172.867 184.918 172.622 186.148 172.622 187.539H172.699ZM173.427 183.883C173.919 182.828 174.608 182.023 175.493 181.468L175.453 181.403C174.554 181.968 173.856 182.784 173.358 183.851L173.427 183.883ZM175.493 181.468C176.385 180.906 177.407 180.624 178.559 180.624V180.548C177.394 180.548 176.358 180.833 175.453 181.403L175.493 181.468ZM178.559 180.624C179.711 180.624 180.73 180.902 181.615 181.458L181.655 181.394C180.757 180.829 179.724 180.548 178.559 180.548V180.624ZM181.615 181.458C182.507 182.007 183.195 182.802 183.681 183.844L183.75 183.812C183.259 182.758 182.56 181.951 181.655 181.393L181.615 181.458ZM183.681 183.844C184.166 184.88 184.413 186.089 184.419 187.471L184.495 187.471C184.489 186.079 184.241 184.86 183.75 183.812L183.681 183.844ZM184.419 187.471V188.262H184.495V187.471H184.419ZM182.025 187.52C182.025 185.94 181.725 184.723 181.119 183.874L181.057 183.919C181.65 184.749 181.949 185.948 181.949 187.52H182.025ZM181.119 183.875C180.519 183.024 179.664 182.599 178.559 182.599V182.675C179.641 182.675 180.472 183.089 181.057 183.918L181.119 183.875ZM178.559 182.599C177.479 182.599 176.631 183.024 176.018 183.874L176.08 183.919C176.678 183.089 177.503 182.675 178.559 182.675V182.599ZM176.018 183.874C175.413 184.716 175.106 185.907 175.093 187.441L175.169 187.442C175.182 185.916 175.487 184.743 176.08 183.919L176.018 183.874ZM175.093 187.441V188.262H175.169V187.441H175.093ZM175.093 188.262C175.093 189.828 175.396 191.045 176.008 191.907L176.07 191.863C175.471 191.019 175.169 189.82 175.169 188.262H175.093ZM176.008 191.907C176.628 192.77 177.486 193.202 178.578 193.202V193.126C177.51 193.126 176.675 192.705 176.07 191.863L176.008 191.907ZM178.578 193.202C179.684 193.202 180.535 192.78 181.129 191.936L181.067 191.892C180.489 192.714 179.661 193.126 178.578 193.126V193.202ZM181.129 191.936C181.728 191.094 182.025 189.867 182.025 188.262H181.949C181.949 189.86 181.653 191.068 181.067 191.892L181.129 191.936ZM182.025 188.262V187.52H181.949V188.262H182.025ZM197.768 190.371L197.806 190.375L197.81 190.333H197.768V190.371ZM196.088 193.926L196.113 193.955L196.113 193.954L196.088 193.926ZM189.194 194.395L189.173 194.427L189.174 194.427L189.194 194.395ZM186.469 188.652H186.431V188.653L186.469 188.652ZM189.223 181.416L189.203 181.384L189.203 181.384L189.223 181.416ZM197.768 185.479V185.517H197.81L197.806 185.475L197.768 185.479ZM195.307 185.479L195.269 185.483L195.273 185.517H195.307V185.479ZM194.409 183.271L194.382 183.299L194.383 183.299L194.409 183.271ZM189.828 183.77L189.798 183.747L189.798 183.747L189.828 183.77ZM188.95 187.217L188.911 187.216V187.217H188.95ZM189.77 191.992L189.738 192.014L189.738 192.014L189.77 191.992ZM195.307 190.371V190.333H195.273L195.269 190.366L195.307 190.371ZM197.73 190.368C197.587 191.877 197.031 193.052 196.063 193.897L196.113 193.954C197.098 193.094 197.662 191.899 197.806 190.375L197.73 190.368ZM196.063 193.897C195.095 194.736 193.806 195.157 192.192 195.157V195.233C193.82 195.233 195.128 194.808 196.113 193.955L196.063 193.897ZM192.192 195.157C191.065 195.157 190.073 194.892 189.214 194.362L189.174 194.427C190.046 194.965 191.053 195.233 192.192 195.233V195.157ZM189.214 194.362C188.361 193.826 187.702 193.067 187.236 192.083L187.167 192.116C187.639 193.112 188.307 193.882 189.173 194.427L189.214 194.362ZM187.236 192.083C186.77 191.1 186.527 189.956 186.507 188.652L186.431 188.653C186.451 189.966 186.696 191.121 187.167 192.116L187.236 192.083ZM186.507 188.652V187.324H186.431V188.652H186.507ZM186.507 187.324C186.507 185.988 186.744 184.812 187.216 183.795L187.147 183.763C186.669 184.791 186.431 185.979 186.431 187.324H186.507ZM187.216 183.795C187.689 182.779 188.365 181.997 189.243 181.448L189.203 181.384C188.311 181.941 187.626 182.735 187.147 183.763L187.216 183.795ZM189.243 181.448C190.128 180.899 191.15 180.624 192.309 180.624V180.548C191.137 180.548 190.101 180.826 189.203 181.384L189.243 181.448ZM192.309 180.624C193.871 180.624 195.124 181.048 196.073 181.894L196.123 181.837C195.158 180.976 193.885 180.548 192.309 180.548V180.624ZM196.073 181.894C197.021 182.739 197.574 183.934 197.73 185.482L197.806 185.475C197.649 183.911 197.089 182.697 196.123 181.837L196.073 181.894ZM197.768 185.44H195.307V185.517H197.768V185.44ZM195.345 185.474C195.227 184.448 194.926 183.702 194.434 183.244L194.383 183.299C194.855 183.74 195.152 184.465 195.269 185.483L195.345 185.474ZM194.435 183.244C193.95 182.779 193.239 182.55 192.309 182.55V182.626C193.228 182.626 193.916 182.852 194.382 183.299L194.435 183.244ZM192.309 182.55C191.224 182.55 190.385 182.948 189.798 183.747L189.859 183.792C190.431 183.015 191.245 182.626 192.309 182.626V182.55ZM189.798 183.747C189.218 184.537 188.924 185.696 188.911 187.216L188.988 187.217C189.001 185.704 189.293 184.564 189.859 183.792L189.798 183.747ZM188.911 187.217V188.477H188.988V187.217H188.911ZM188.911 188.477C188.911 190.017 189.185 191.197 189.738 192.014L189.801 191.971C189.261 191.173 188.988 190.009 188.988 188.477H188.911ZM189.738 192.014C190.3 192.832 191.119 193.241 192.192 193.241V193.165C191.142 193.165 190.347 192.767 189.801 191.971L189.738 192.014ZM192.192 193.241C193.167 193.241 193.907 193.022 194.405 192.577L194.354 192.52C193.875 192.948 193.157 193.165 192.192 193.165V193.241ZM194.405 192.577C194.903 192.132 195.214 191.396 195.345 190.376L195.269 190.366C195.139 191.378 194.832 192.093 194.354 192.52L194.405 192.577ZM195.307 190.409H197.768V190.333H195.307V190.409ZM211.274 195V195.038H211.312V195H211.274ZM208.813 195H208.775V195.038H208.813V195ZM208.813 188.682H208.851V188.644H208.813V188.682ZM202.455 188.682V188.644H202.417V188.682H202.455ZM202.455 195V195.038H202.493V195H202.455ZM199.985 195H199.947V195.038H199.985V195ZM199.985 180.781V180.743H199.947V180.781H199.985ZM202.455 180.781H202.493V180.743H202.455V180.781ZM202.455 186.699H202.417V186.737H202.455V186.699ZM208.813 186.699V186.737H208.851V186.699H208.813ZM208.813 180.781V180.743H208.775V180.781H208.813ZM211.274 180.781H211.312V180.743H211.274V180.781ZM211.274 194.962H208.813V195.038H211.274V194.962ZM208.851 195V188.682H208.775V195H208.851ZM208.813 188.644H202.455V188.72H208.813V188.644ZM202.417 188.682V195H202.493V188.682H202.417ZM202.455 194.962H199.985V195.038H202.455V194.962ZM200.023 195V180.781H199.947V195H200.023ZM199.985 180.819H202.455V180.743H199.985V180.819ZM202.417 180.781V186.699H202.493V180.781H202.417ZM202.455 186.737H208.813V186.661H202.455V186.737ZM208.851 186.699V180.781H208.775V186.699H208.851ZM208.813 180.819H211.274V180.743H208.813V180.819ZM211.236 180.781V195H211.312V180.781H211.236ZM222.338 191.689L222.374 191.677L222.365 191.651H222.338V191.689ZM216.83 191.689V191.651H216.803L216.794 191.677L216.83 191.689ZM215.678 195V195.038H215.705L215.714 195.013L215.678 195ZM213.11 195L213.074 194.987L213.055 195.038H213.11V195ZM218.481 180.781V180.743H218.454L218.445 180.768L218.481 180.781ZM220.698 180.781L220.733 180.768L220.724 180.743H220.698V180.781ZM226.078 195V195.038H226.134L226.114 194.987L226.078 195ZM223.5 195L223.464 195.013L223.473 195.038H223.5V195ZM217.524 189.697L217.488 189.685L217.47 189.735H217.524V189.697ZM221.645 189.697V189.735H221.699L221.681 189.685L221.645 189.697ZM219.584 183.799L219.62 183.786L219.584 183.683L219.548 183.786L219.584 183.799ZM222.338 191.651H216.83V191.728H222.338V191.651ZM216.794 191.677L215.642 194.987L215.714 195.013L216.866 191.702L216.794 191.677ZM215.678 194.962H213.11V195.038H215.678V194.962ZM213.145 195.013L218.516 180.795L218.445 180.768L213.074 194.987L213.145 195.013ZM218.481 180.819H220.698V180.743H218.481V180.819ZM220.662 180.795L226.043 195.013L226.114 194.987L220.733 180.768L220.662 180.795ZM226.078 194.962H223.5V195.038H226.078V194.962ZM223.536 194.987L222.374 191.677L222.302 191.702L223.464 195.013L223.536 194.987ZM217.524 189.735H221.645V189.659H217.524V189.735ZM221.681 189.685L219.62 183.786L219.548 183.811L221.609 189.71L221.681 189.685ZM219.548 183.786L217.488 189.685L217.56 189.71L219.62 183.811L219.548 183.786Z" fill="white"/>
<path fill-rule="evenodd" clip-rule="evenodd" d="M203.851 215.294L176.093 214.168L176.265 216.417L203.851 215.294Z" fill="white" stroke="white" stroke-width="0.199977" stroke-miterlimit="22.9256"/>
<path fill-rule="evenodd" clip-rule="evenodd" d="M83.26 215.294L111.018 214.168L110.845 216.417L83.26 215.294Z" fill="white" stroke="white" stroke-width="0.199977" stroke-miterlimit="22.9256"/>
<path d="M127.445 214.399H123.131V217.927H128.142V219H121.819V209.047H128.074V210.127H123.131V213.326H127.445V214.399ZM133.884 217.038C133.884 216.696 133.754 216.432 133.495 216.245C133.239 216.054 132.791 215.89 132.148 215.753C131.51 215.616 131.002 215.452 130.624 215.261C130.25 215.069 129.972 214.841 129.79 214.577C129.612 214.313 129.523 213.998 129.523 213.634C129.523 213.028 129.778 212.515 130.289 212.096C130.804 211.676 131.46 211.467 132.257 211.467C133.096 211.467 133.775 211.683 134.294 212.116C134.818 212.549 135.081 213.103 135.081 213.777H133.809C133.809 213.431 133.661 213.132 133.365 212.882C133.073 212.631 132.704 212.506 132.257 212.506C131.797 212.506 131.437 212.606 131.177 212.807C130.917 213.007 130.788 213.269 130.788 213.593C130.788 213.898 130.908 214.128 131.15 214.283C131.391 214.438 131.827 214.586 132.456 214.728C133.089 214.869 133.602 215.037 133.994 215.233C134.386 215.429 134.675 215.666 134.862 215.944C135.053 216.218 135.149 216.553 135.149 216.949C135.149 217.61 134.885 218.141 134.356 218.542C133.827 218.938 133.141 219.137 132.298 219.137C131.706 219.137 131.182 219.032 130.726 218.822C130.27 218.613 129.913 218.321 129.653 217.947C129.398 217.569 129.27 217.161 129.27 216.724H130.535C130.557 217.147 130.726 217.485 131.041 217.735C131.36 217.981 131.779 218.104 132.298 218.104C132.777 218.104 133.16 218.009 133.447 217.817C133.738 217.621 133.884 217.362 133.884 217.038ZM143.044 215.384C143.044 216.509 142.787 217.416 142.272 218.104C141.757 218.793 141.06 219.137 140.18 219.137C139.282 219.137 138.576 218.852 138.061 218.282V221.844H136.796V211.604H137.952L138.013 212.424C138.528 211.786 139.244 211.467 140.16 211.467C141.048 211.467 141.75 211.802 142.265 212.472C142.785 213.142 143.044 214.074 143.044 215.268V215.384ZM141.78 215.24C141.78 214.406 141.602 213.748 141.247 213.265C140.891 212.782 140.403 212.54 139.784 212.54C139.018 212.54 138.444 212.88 138.061 213.559V217.093C138.439 217.767 139.018 218.104 139.797 218.104C140.403 218.104 140.884 217.865 141.24 217.387C141.6 216.904 141.78 216.188 141.78 215.24ZM149.224 219C149.151 218.854 149.092 218.594 149.046 218.221C148.458 218.831 147.757 219.137 146.941 219.137C146.212 219.137 145.612 218.932 145.143 218.521C144.678 218.107 144.446 217.583 144.446 216.949C144.446 216.179 144.737 215.582 145.321 215.158C145.909 214.73 146.734 214.516 147.795 214.516H149.026V213.935C149.026 213.493 148.894 213.142 148.629 212.882C148.365 212.618 147.975 212.485 147.46 212.485C147.009 212.485 146.631 212.599 146.326 212.827C146.02 213.055 145.868 213.331 145.868 213.654H144.596C144.596 213.285 144.726 212.93 144.986 212.588C145.25 212.242 145.606 211.968 146.052 211.768C146.503 211.567 146.998 211.467 147.536 211.467C148.388 211.467 149.055 211.681 149.539 212.109C150.022 212.533 150.272 213.119 150.291 213.866V217.271C150.291 217.95 150.377 218.49 150.55 218.891V219H149.224ZM147.125 218.036C147.522 218.036 147.898 217.934 148.253 217.729C148.609 217.523 148.866 217.257 149.026 216.929V215.411H148.035C146.485 215.411 145.71 215.865 145.71 216.771C145.71 217.168 145.843 217.478 146.107 217.701C146.371 217.924 146.711 218.036 147.125 218.036ZM155.24 218.104C155.691 218.104 156.085 217.968 156.422 217.694C156.76 217.421 156.946 217.079 156.983 216.669H158.179C158.156 217.093 158.011 217.496 157.742 217.879C157.473 218.262 157.113 218.567 156.662 218.795C156.215 219.023 155.741 219.137 155.24 219.137C154.233 219.137 153.43 218.802 152.833 218.132C152.241 217.457 151.945 216.537 151.945 215.37V215.158C151.945 214.438 152.077 213.798 152.341 213.237C152.606 212.677 152.984 212.242 153.476 211.932C153.973 211.622 154.558 211.467 155.233 211.467C156.062 211.467 156.75 211.715 157.297 212.212C157.849 212.709 158.143 213.354 158.179 214.146H156.983C156.946 213.668 156.764 213.276 156.436 212.971C156.112 212.661 155.711 212.506 155.233 212.506C154.59 212.506 154.091 212.738 153.736 213.203C153.385 213.663 153.209 214.331 153.209 215.206V215.445C153.209 216.298 153.385 216.954 153.736 217.414C154.087 217.874 154.588 218.104 155.24 218.104ZM155.445 219.062L155.363 219.417C156.06 219.54 156.409 219.934 156.409 220.6C156.409 221.042 156.226 221.39 155.862 221.646C155.497 221.905 154.989 222.035 154.337 222.035L154.29 221.304C154.65 221.304 154.928 221.244 155.124 221.126C155.324 221.007 155.424 220.841 155.424 220.627C155.424 220.426 155.351 220.278 155.206 220.183C155.06 220.087 154.763 220.019 154.317 219.978L154.536 219.062H155.445ZM159.266 215.233C159.266 214.509 159.407 213.857 159.69 213.278C159.977 212.7 160.374 212.253 160.879 211.938C161.39 211.624 161.971 211.467 162.623 211.467C163.63 211.467 164.443 211.815 165.063 212.513C165.687 213.21 165.999 214.137 165.999 215.295V215.384C165.999 216.104 165.86 216.751 165.582 217.325C165.309 217.895 164.915 218.339 164.4 218.658C163.889 218.977 163.302 219.137 162.636 219.137C161.634 219.137 160.82 218.788 160.196 218.091C159.576 217.394 159.266 216.471 159.266 215.322V215.233ZM160.538 215.384C160.538 216.204 160.727 216.863 161.105 217.359C161.488 217.856 161.998 218.104 162.636 218.104C163.279 218.104 163.789 217.854 164.167 217.353C164.546 216.847 164.735 216.14 164.735 215.233C164.735 214.422 164.541 213.766 164.154 213.265C163.771 212.759 163.261 212.506 162.623 212.506C161.998 212.506 161.495 212.754 161.112 213.251C160.729 213.748 160.538 214.459 160.538 215.384Z" fill="white"/>
<path d="M127.445 214.399V214.438H127.483V214.399H127.445ZM123.131 214.399V214.361H123.093V214.399H123.131ZM123.131 217.927H123.093V217.965H123.131V217.927ZM128.142 217.927H128.18V217.889H128.142V217.927ZM128.142 219V219.038H128.18V219H128.142ZM121.819 219H121.781V219.038H121.819V219ZM121.819 209.047V209.009H121.781V209.047H121.819ZM128.074 209.047H128.112V209.009H128.074V209.047ZM128.074 210.127V210.165H128.112V210.127H128.074ZM123.131 210.127V210.089H123.093V210.127H123.131ZM123.131 213.326H123.093V213.364H123.131V213.326ZM127.445 213.326H127.483V213.288H127.445V213.326ZM127.445 214.361H123.131V214.438H127.445V214.361ZM123.093 214.399V217.927H123.169V214.399H123.093ZM123.131 217.965H128.142V217.889H123.131V217.965ZM128.104 217.927V219H128.18V217.927H128.104ZM128.142 218.962H121.819V219.038H128.142V218.962ZM121.857 219V209.047H121.781V219H121.857ZM121.819 209.085H128.074V209.009H121.819V209.085ZM128.036 209.047V210.127H128.112V209.047H128.036ZM128.074 210.089H123.131V210.165H128.074V210.089ZM123.093 210.127V213.326H123.169V210.127H123.093ZM123.131 213.364H127.445V213.288H123.131V213.364ZM127.407 213.326V214.399H127.483V213.326H127.407ZM133.495 216.245L133.472 216.276L133.472 216.276L133.495 216.245ZM132.148 215.753L132.14 215.79L132.14 215.79L132.148 215.753ZM130.624 215.261L130.606 215.295L130.606 215.295L130.624 215.261ZM129.79 214.577L129.758 214.598L129.758 214.599L129.79 214.577ZM130.289 212.096L130.264 212.066L130.264 212.066L130.289 212.096ZM134.294 212.116L134.27 212.145L134.27 212.146L134.294 212.116ZM135.081 213.777V213.815H135.119V213.777H135.081ZM133.809 213.777H133.771V213.815H133.809V213.777ZM133.365 212.882L133.34 212.911L133.34 212.911L133.365 212.882ZM132.456 214.728L132.447 214.765L132.447 214.765L132.456 214.728ZM134.862 215.944L134.83 215.966L134.831 215.966L134.862 215.944ZM134.356 218.542L134.379 218.572L134.379 218.572L134.356 218.542ZM130.726 218.822L130.71 218.857L130.726 218.822ZM129.653 217.947L129.621 217.969L129.622 217.969L129.653 217.947ZM129.27 216.724V216.686H129.232V216.724H129.27ZM130.535 216.724L130.573 216.722L130.571 216.686H130.535V216.724ZM131.041 217.735L131.017 217.765L131.017 217.766L131.041 217.735ZM133.447 217.817L133.468 217.849L133.468 217.849L133.447 217.817ZM133.922 217.038C133.922 216.685 133.787 216.409 133.517 216.214L133.472 216.276C133.721 216.455 133.846 216.708 133.846 217.038H133.922ZM133.517 216.215C133.255 216.018 132.799 215.853 132.156 215.716L132.14 215.79C132.782 215.927 133.224 216.089 133.472 216.276L133.517 216.215ZM132.156 215.716C131.52 215.579 131.015 215.416 130.641 215.227L130.606 215.295C130.989 215.488 131.5 215.653 132.14 215.79L132.156 215.716ZM130.641 215.227C130.271 215.037 129.999 214.813 129.821 214.556L129.758 214.599C129.945 214.87 130.229 215.101 130.606 215.295L130.641 215.227ZM129.821 214.556C129.648 214.299 129.561 213.992 129.561 213.634H129.485C129.485 214.005 129.575 214.327 129.758 214.598L129.821 214.556ZM129.561 213.634C129.561 213.04 129.81 212.538 130.313 212.125L130.264 212.066C129.746 212.492 129.485 213.015 129.485 213.634H129.561ZM130.313 212.125C130.819 211.713 131.467 211.505 132.257 211.505V211.429C131.453 211.429 130.788 211.64 130.264 212.066L130.313 212.125ZM132.257 211.505C133.089 211.505 133.759 211.72 134.27 212.145L134.319 212.087C133.791 211.647 133.103 211.429 132.257 211.429V211.505ZM134.27 212.146C134.786 212.571 135.042 213.114 135.042 213.777H135.119C135.119 213.091 134.851 212.527 134.319 212.087L134.27 212.146ZM135.081 213.739H133.809V213.815H135.081V213.739ZM133.847 213.777C133.847 213.418 133.693 213.11 133.389 212.853L133.34 212.911C133.629 213.155 133.771 213.444 133.771 213.777H133.847ZM133.39 212.853C133.09 212.595 132.711 212.468 132.257 212.468V212.544C132.696 212.544 133.056 212.667 133.34 212.911L133.39 212.853ZM132.257 212.468C131.792 212.468 131.423 212.569 131.154 212.776L131.201 212.837C131.451 212.643 131.802 212.544 132.257 212.544V212.468ZM131.154 212.776C130.885 212.984 130.749 213.257 130.749 213.593H130.826C130.826 213.281 130.95 213.03 131.201 212.837L131.154 212.776ZM130.749 213.593C130.749 213.91 130.876 214.153 131.129 214.315L131.17 214.251C130.941 214.104 130.826 213.886 130.826 213.593H130.749ZM131.129 214.315C131.377 214.474 131.818 214.623 132.447 214.765L132.464 214.69C131.835 214.549 131.406 214.402 131.17 214.251L131.129 214.315ZM132.447 214.765C133.079 214.906 133.588 215.073 133.977 215.267L134.011 215.199C133.615 215.001 133.099 214.832 132.464 214.69L132.447 214.765ZM133.977 215.267C134.364 215.461 134.648 215.694 134.83 215.966L134.893 215.923C134.702 215.638 134.407 215.397 134.011 215.199L133.977 215.267ZM134.831 215.966C135.017 216.232 135.111 216.559 135.111 216.949H135.187C135.187 216.546 135.09 216.203 134.893 215.922L134.831 215.966ZM135.111 216.949C135.111 217.598 134.852 218.118 134.333 218.512L134.379 218.572C134.917 218.164 135.187 217.622 135.187 216.949H135.111ZM134.333 218.512C133.813 218.902 133.135 219.099 132.298 219.099V219.175C133.147 219.175 133.842 218.975 134.379 218.572L134.333 218.512ZM132.298 219.099C131.71 219.099 131.192 218.995 130.742 218.788L130.71 218.857C131.172 219.069 131.701 219.175 132.298 219.175V219.099ZM130.742 218.788C130.292 218.581 129.94 218.293 129.684 217.926L129.622 217.969C129.886 218.349 130.249 218.645 130.71 218.857L130.742 218.788ZM129.684 217.926C129.433 217.554 129.308 217.153 129.308 216.724H129.232C129.232 217.169 129.362 217.584 129.621 217.969L129.684 217.926ZM129.27 216.762H130.535V216.686H129.27V216.762ZM130.497 216.726C130.52 217.16 130.693 217.507 131.017 217.765L131.064 217.706C130.759 217.462 130.595 217.135 130.573 216.722L130.497 216.726ZM131.017 217.766C131.345 218.018 131.773 218.143 132.298 218.143V218.066C131.785 218.066 131.374 217.945 131.064 217.705L131.017 217.766ZM132.298 218.143C132.782 218.143 133.173 218.046 133.468 217.849L133.426 217.786C133.147 217.972 132.772 218.066 132.298 218.066V218.143ZM133.468 217.849C133.769 217.647 133.922 217.376 133.922 217.038H133.846C133.846 217.348 133.708 217.596 133.426 217.786L133.468 217.849ZM138.061 218.282L138.089 218.257L138.023 218.183V218.282H138.061ZM138.061 221.844V221.882H138.099V221.844H138.061ZM136.796 221.844H136.758V221.882H136.796V221.844ZM136.796 211.604V211.565H136.758V211.604H136.796ZM137.952 211.604L137.99 211.601L137.987 211.565H137.952V211.604ZM138.013 212.424L137.975 212.427L137.982 212.523L138.043 212.448L138.013 212.424ZM142.265 212.472L142.235 212.495L142.235 212.495L142.265 212.472ZM138.061 213.559L138.028 213.54L138.023 213.549V213.559H138.061ZM138.061 217.093H138.023V217.103L138.028 217.111L138.061 217.093ZM141.24 217.387L141.209 217.364L141.209 217.364L141.24 217.387ZM143.006 215.384C143.006 216.504 142.75 217.402 142.241 218.082L142.302 218.127C142.824 217.431 143.083 216.515 143.083 215.384H143.006ZM142.241 218.082C141.734 218.76 141.048 219.099 140.18 219.099V219.175C141.071 219.175 141.78 218.825 142.302 218.127L142.241 218.082ZM140.18 219.099C139.291 219.099 138.596 218.817 138.089 218.257L138.033 218.308C138.556 218.887 139.274 219.175 140.18 219.175V219.099ZM138.023 218.282V221.844H138.099V218.282H138.023ZM138.061 221.806H136.796V221.882H138.061V221.806ZM136.834 221.844V211.604H136.758V221.844H136.834ZM136.796 211.642H137.952V211.565H136.796V211.642ZM137.914 211.606L137.975 212.427L138.051 212.421L137.99 211.601L137.914 211.606ZM138.043 212.448C138.55 211.82 139.254 211.505 140.16 211.505V211.429C139.234 211.429 138.507 211.752 137.984 212.4L138.043 212.448ZM140.16 211.505C141.037 211.505 141.728 211.835 142.235 212.495L142.295 212.448C141.773 211.769 141.059 211.429 140.16 211.429V211.505ZM142.235 212.495C142.748 213.156 143.006 214.079 143.006 215.268H143.083C143.083 214.068 142.822 213.127 142.295 212.448L142.235 212.495ZM143.006 215.268V215.384H143.083V215.268H143.006ZM141.818 215.24C141.818 214.401 141.639 213.734 141.277 213.242L141.216 213.287C141.565 213.762 141.742 214.411 141.742 215.24H141.818ZM141.277 213.242C140.914 212.749 140.415 212.502 139.784 212.502V212.578C140.392 212.578 140.868 212.814 141.216 213.287L141.277 213.242ZM139.784 212.502C139.004 212.502 138.417 212.849 138.028 213.54L138.094 213.577C138.47 212.91 139.032 212.578 139.784 212.578V212.502ZM138.023 213.559V217.093H138.099V213.559H138.023ZM138.028 217.111C138.22 217.454 138.463 217.712 138.76 217.884C139.056 218.057 139.402 218.143 139.797 218.143V218.066C139.413 218.066 139.081 217.983 138.798 217.819C138.515 217.654 138.281 217.406 138.094 217.074L138.028 217.111ZM139.797 218.143C140.415 218.143 140.908 217.898 141.27 217.409L141.209 217.364C140.861 217.833 140.392 218.066 139.797 218.066V218.143ZM141.27 217.409C141.637 216.917 141.818 216.192 141.818 215.24H141.742C141.742 216.184 141.562 216.89 141.209 217.364L141.27 217.409ZM149.224 219L149.19 219.017L149.201 219.038H149.224V219ZM149.046 218.221L149.084 218.216L149.074 218.137L149.019 218.194L149.046 218.221ZM145.143 218.521L145.118 218.55L145.118 218.55L145.143 218.521ZM145.321 215.158L145.343 215.189L145.343 215.189L145.321 215.158ZM149.026 214.516V214.554H149.064V214.516H149.026ZM148.629 212.882L148.602 212.909L148.603 212.909L148.629 212.882ZM145.868 213.654V213.692H145.906V213.654H145.868ZM144.596 213.654H144.558V213.692H144.596V213.654ZM144.986 212.588L144.956 212.565L144.955 212.565L144.986 212.588ZM146.052 211.768L146.037 211.733L146.037 211.733L146.052 211.768ZM149.539 212.109L149.513 212.138L149.513 212.138L149.539 212.109ZM150.291 213.866H150.329L150.329 213.865L150.291 213.866ZM150.55 218.891H150.588V218.883L150.585 218.876L150.55 218.891ZM150.55 219V219.038H150.588V219H150.55ZM149.026 216.929L149.06 216.945L149.064 216.937V216.929H149.026ZM149.026 215.411H149.064V215.373H149.026V215.411ZM149.258 218.983C149.188 218.844 149.13 218.59 149.084 218.216L149.009 218.225C149.054 218.599 149.114 218.865 149.19 219.017L149.258 218.983ZM149.019 218.194C148.438 218.798 147.746 219.099 146.941 219.099V219.175C147.767 219.175 148.479 218.865 149.074 218.247L149.019 218.194ZM146.941 219.099C146.219 219.099 145.629 218.896 145.168 218.493L145.118 218.55C145.595 218.967 146.204 219.175 146.941 219.175V219.099ZM145.168 218.493C144.712 218.086 144.484 217.572 144.484 216.949H144.408C144.408 217.593 144.645 218.128 145.118 218.55L145.168 218.493ZM144.484 216.949C144.484 216.19 144.77 215.605 145.343 215.189L145.298 215.127C144.704 215.559 144.408 216.168 144.408 216.949H144.484ZM145.343 215.189C145.922 214.767 146.738 214.554 147.795 214.554V214.478C146.729 214.478 145.895 214.693 145.298 215.127L145.343 215.189ZM147.795 214.554H149.026V214.478H147.795V214.554ZM149.064 214.516V213.935H148.988V214.516H149.064ZM149.064 213.935C149.064 213.484 148.929 213.123 148.656 212.855L148.603 212.909C148.858 213.16 148.988 213.501 148.988 213.935H149.064ZM148.656 212.855C148.382 212.581 147.982 212.447 147.46 212.447V212.523C147.969 212.523 148.348 212.654 148.602 212.909L148.656 212.855ZM147.46 212.447C147.003 212.447 146.616 212.563 146.303 212.797L146.348 212.858C146.646 212.636 147.016 212.523 147.46 212.523V212.447ZM146.303 212.797C145.99 213.03 145.83 213.316 145.83 213.654H145.906C145.906 213.345 146.051 213.08 146.348 212.858L146.303 212.797ZM145.868 213.616H144.596V213.692H145.868V213.616ZM144.634 213.654C144.634 213.295 144.761 212.947 145.016 212.611L144.955 212.565C144.692 212.912 144.558 213.276 144.558 213.654H144.634ZM145.016 212.611C145.276 212.27 145.626 212.001 146.068 211.802L146.037 211.733C145.585 211.936 145.224 212.213 144.956 212.565L145.016 212.611ZM146.068 211.802C146.514 211.604 147.003 211.505 147.536 211.505V211.429C146.993 211.429 146.493 211.53 146.037 211.733L146.068 211.802ZM147.536 211.505C148.382 211.505 149.039 211.717 149.513 212.138L149.564 212.081C149.072 211.645 148.394 211.429 147.536 211.429V211.505ZM149.513 212.138C149.987 212.554 150.234 213.128 150.252 213.867L150.329 213.865C150.31 213.109 150.056 212.513 149.564 212.081L149.513 212.138ZM150.252 213.866V217.271H150.329V213.866H150.252ZM150.252 217.271C150.252 217.952 150.339 218.498 150.515 218.906L150.585 218.876C150.415 218.481 150.329 217.947 150.329 217.271H150.252ZM150.512 218.891V219H150.588V218.891H150.512ZM150.55 218.962H149.224V219.038H150.55V218.962ZM147.125 218.074C147.529 218.074 147.911 217.97 148.272 217.762L148.234 217.696C147.884 217.897 147.515 217.998 147.125 217.998V218.074ZM148.272 217.762C148.634 217.553 148.897 217.281 149.06 216.945L148.992 216.912C148.836 217.232 148.584 217.494 148.234 217.696L148.272 217.762ZM149.064 216.929V215.411H148.988V216.929H149.064ZM149.026 215.373H148.035V215.449H149.026V215.373ZM148.035 215.373C147.257 215.373 146.668 215.487 146.272 215.718C145.873 215.952 145.672 216.305 145.672 216.771H145.749C145.749 216.331 145.935 216.004 146.311 215.784C146.689 215.562 147.262 215.449 148.035 215.449V215.373ZM145.672 216.771C145.672 217.177 145.808 217.499 146.082 217.73L146.131 217.672C145.877 217.457 145.749 217.159 145.749 216.771H145.672ZM146.082 217.73C146.355 217.96 146.704 218.074 147.125 218.074V217.998C146.718 217.998 146.388 217.888 146.131 217.672L146.082 217.73ZM156.983 216.669V216.631H156.948L156.945 216.666L156.983 216.669ZM158.179 216.669L158.217 216.671L158.219 216.631H158.179V216.669ZM156.662 218.795L156.644 218.761L156.644 218.761L156.662 218.795ZM152.833 218.132L152.805 218.157L152.805 218.157L152.833 218.132ZM153.476 211.932L153.456 211.899L153.456 211.899L153.476 211.932ZM157.297 212.212L157.272 212.24L157.272 212.24L157.297 212.212ZM158.179 214.146V214.185H158.219L158.217 214.145L158.179 214.146ZM156.983 214.146L156.945 214.149L156.948 214.185H156.983V214.146ZM156.436 212.971L156.41 212.998L156.41 212.999L156.436 212.971ZM153.736 213.203L153.706 213.18L153.706 213.18L153.736 213.203ZM155.445 219.062L155.482 219.07L155.493 219.023H155.445V219.062ZM155.363 219.417L155.326 219.408L155.317 219.448L155.356 219.455L155.363 219.417ZM155.862 221.646L155.84 221.614L155.84 221.614L155.862 221.646ZM154.337 222.035L154.299 222.038L154.302 222.073H154.337V222.035ZM154.29 221.304V221.266H154.249L154.252 221.306L154.29 221.304ZM155.124 221.126L155.104 221.093L155.104 221.093L155.124 221.126ZM155.206 220.183L155.185 220.214L155.206 220.183ZM154.317 219.978L154.28 219.969L154.27 220.011L154.313 220.015L154.317 219.978ZM154.536 219.062V219.023H154.506L154.499 219.053L154.536 219.062ZM155.24 218.143C155.699 218.143 156.102 218.003 156.446 217.724L156.398 217.665C156.068 217.932 155.683 218.066 155.24 218.066V218.143ZM156.446 217.724C156.791 217.444 156.983 217.093 157.021 216.672L156.945 216.666C156.909 217.065 156.728 217.397 156.398 217.665L156.446 217.724ZM156.983 216.707H158.179V216.631H156.983V216.707ZM158.141 216.667C158.119 217.083 157.976 217.479 157.71 217.857L157.773 217.901C158.045 217.513 158.194 217.103 158.217 216.671L158.141 216.667ZM157.71 217.857C157.445 218.234 157.09 218.536 156.644 218.761L156.679 218.829C157.135 218.598 157.5 218.289 157.773 217.901L157.71 217.857ZM156.644 218.761C156.203 218.986 155.735 219.099 155.24 219.099V219.175C155.747 219.175 156.227 219.059 156.679 218.829L156.644 218.761ZM155.24 219.099C154.242 219.099 153.451 218.767 152.862 218.106L152.805 218.157C153.41 218.836 154.223 219.175 155.24 219.175V219.099ZM152.862 218.107C152.277 217.441 151.983 216.53 151.983 215.37H151.907C151.907 216.543 152.205 217.474 152.805 218.157L152.862 218.107ZM151.983 215.37V215.158H151.907V215.37H151.983ZM151.983 215.158C151.983 214.443 152.114 213.808 152.376 213.254L152.307 213.221C152.04 213.787 151.907 214.433 151.907 215.158H151.983ZM152.376 213.254C152.637 212.699 153.011 212.27 153.496 211.964L153.456 211.899C152.957 212.213 152.574 212.654 152.307 213.221L152.376 213.254ZM153.496 211.964C153.986 211.658 154.564 211.505 155.233 211.505V211.429C154.552 211.429 153.96 211.585 153.456 211.899L153.496 211.964ZM155.233 211.505C156.054 211.505 156.733 211.751 157.272 212.24L157.323 212.184C156.768 211.68 156.071 211.429 155.233 211.429V211.505ZM157.272 212.24C157.815 212.73 158.105 213.365 158.141 214.148L158.217 214.145C158.18 213.342 157.882 212.688 157.323 212.184L157.272 212.24ZM158.179 214.108H156.983V214.185H158.179V214.108ZM157.021 214.144C156.984 213.656 156.798 213.255 156.462 212.943L156.41 212.999C156.731 213.297 156.909 213.68 156.945 214.149L157.021 214.144ZM156.462 212.943C156.131 212.626 155.72 212.468 155.233 212.468V212.544C155.702 212.544 156.094 212.696 156.41 212.998L156.462 212.943ZM155.233 212.468C154.58 212.468 154.069 212.705 153.706 213.18L153.766 213.226C154.114 212.772 154.601 212.544 155.233 212.544V212.468ZM153.706 213.18C153.348 213.65 153.171 214.327 153.171 215.206H153.248C153.248 214.335 153.422 213.677 153.766 213.226L153.706 213.18ZM153.171 215.206V215.445H153.248V215.206H153.171ZM153.171 215.445C153.171 216.302 153.348 216.968 153.706 217.437L153.766 217.391C153.422 216.94 153.248 216.293 153.248 215.445H153.171ZM153.706 217.437C154.065 217.908 154.578 218.143 155.24 218.143V218.066C154.598 218.066 154.109 217.841 153.766 217.391L153.706 217.437ZM155.408 219.053L155.326 219.408L155.4 219.426L155.482 219.07L155.408 219.053ZM155.356 219.455C155.699 219.515 155.952 219.641 156.119 219.83C156.285 220.019 156.371 220.274 156.371 220.6H156.447C156.447 220.26 156.358 219.985 156.176 219.78C155.994 219.574 155.724 219.442 155.369 219.379L155.356 219.455ZM156.371 220.6C156.371 221.029 156.194 221.366 155.84 221.614L155.884 221.677C156.258 221.414 156.447 221.054 156.447 220.6H156.371ZM155.84 221.614C155.484 221.868 154.985 221.997 154.337 221.997V222.073C154.994 222.073 155.511 221.943 155.884 221.677L155.84 221.614ZM154.375 222.033L154.328 221.301L154.252 221.306L154.299 222.038L154.375 222.033ZM154.29 221.342C154.653 221.342 154.939 221.282 155.143 221.159L155.104 221.093C154.916 221.207 154.646 221.266 154.29 221.266V221.342ZM155.143 221.159C155.354 221.034 155.462 220.856 155.462 220.627H155.386C155.386 220.826 155.294 220.981 155.104 221.093L155.143 221.159ZM155.462 220.627C155.462 220.416 155.385 220.255 155.226 220.151L155.185 220.214C155.318 220.302 155.386 220.437 155.386 220.627H155.462ZM155.226 220.151C155.148 220.099 155.032 220.057 154.883 220.022C154.732 219.988 154.545 219.96 154.32 219.94L154.313 220.015C154.536 220.036 154.72 220.063 154.865 220.097C155.012 220.131 155.117 220.17 155.185 220.214L155.226 220.151ZM154.354 219.986L154.573 219.07L154.499 219.053L154.28 219.969L154.354 219.986ZM154.536 219.1H155.445V219.023H154.536V219.1ZM159.69 213.278L159.656 213.261L159.656 213.262L159.69 213.278ZM160.879 211.938L160.859 211.906L160.859 211.906L160.879 211.938ZM165.063 212.513L165.034 212.538L165.035 212.538L165.063 212.513ZM165.582 217.325L165.548 217.309L165.548 217.309L165.582 217.325ZM164.4 218.658L164.38 218.626L164.38 218.626L164.4 218.658ZM160.196 218.091L160.167 218.116L160.167 218.116L160.196 218.091ZM161.105 217.359L161.075 217.382L161.075 217.383L161.105 217.359ZM164.167 217.353L164.198 217.375L164.198 217.375L164.167 217.353ZM164.154 213.265L164.123 213.288L164.124 213.288L164.154 213.265ZM159.304 215.233C159.304 214.514 159.444 213.868 159.724 213.295L159.656 213.262C159.37 213.846 159.228 214.504 159.228 215.233H159.304ZM159.724 213.295C160.008 212.722 160.4 212.281 160.899 211.971L160.859 211.906C160.347 212.225 159.946 212.677 159.656 213.261L159.724 213.295ZM160.899 211.971C161.403 211.66 161.977 211.505 162.623 211.505V211.429C161.964 211.429 161.376 211.588 160.859 211.906L160.899 211.971ZM162.623 211.505C163.62 211.505 164.423 211.85 165.034 212.538L165.091 212.487C164.464 211.781 163.64 211.429 162.623 211.429V211.505ZM165.035 212.538C165.651 213.227 165.961 214.144 165.961 215.295H166.038C166.038 214.13 165.723 213.193 165.091 212.487L165.035 212.538ZM165.961 215.295V215.384H166.038V215.295H165.961ZM165.961 215.384C165.961 216.099 165.823 216.74 165.548 217.309L165.617 217.342C165.898 216.762 166.038 216.109 166.038 215.384H165.961ZM165.548 217.309C165.278 217.872 164.888 218.311 164.38 218.626L164.42 218.691C164.941 218.368 165.34 217.918 165.617 217.342L165.548 217.309ZM164.38 218.626C163.876 218.941 163.295 219.099 162.636 219.099V219.175C163.308 219.175 163.903 219.014 164.42 218.691L164.38 218.626ZM162.636 219.099C161.644 219.099 160.841 218.754 160.224 218.065L160.167 218.116C160.8 218.822 161.624 219.175 162.636 219.175V219.099ZM160.224 218.066C159.612 217.377 159.304 216.464 159.304 215.322H159.228C159.228 216.478 159.54 217.41 160.167 218.116L160.224 218.066ZM159.304 215.322V215.233H159.228V215.322H159.304ZM160.499 215.384C160.499 216.21 160.69 216.877 161.075 217.382L161.135 217.336C160.763 216.848 160.576 216.198 160.576 215.384H160.499ZM161.075 217.383C161.465 217.889 161.987 218.143 162.636 218.143V218.066C162.01 218.066 161.511 217.823 161.135 217.336L161.075 217.383ZM162.636 218.143C163.29 218.143 163.812 217.887 164.198 217.375L164.137 217.33C163.766 217.821 163.267 218.066 162.636 218.066V218.143ZM164.198 217.375C164.583 216.861 164.773 216.145 164.773 215.233H164.697C164.697 216.136 164.509 216.833 164.137 217.33L164.198 217.375ZM164.773 215.233C164.773 214.416 164.578 213.751 164.184 213.241L164.124 213.288C164.505 213.781 164.697 214.428 164.697 215.233H164.773ZM164.184 213.242C163.794 212.726 163.272 212.468 162.623 212.468V212.544C163.249 212.544 163.748 212.791 164.123 213.288L164.184 213.242ZM162.623 212.468C161.986 212.468 161.472 212.722 161.082 213.228L161.142 213.274C161.518 212.787 162.01 212.544 162.623 212.544V212.468ZM161.082 213.228C160.692 213.734 160.499 214.454 160.499 215.384H160.576C160.576 214.463 160.766 213.762 161.142 213.274L161.082 213.228Z" fill="white"/>
<path d="M142.753 155.881H183.732V108.671H201.264H201.687L231.471 155.881C246.334 155.812 266.825 155.19 277.551 138.143C257.978 136.266 251.613 118.384 243.51 101.545C261.887 93.3058 273.928 77.4953 273.928 53.6676V53.2219C273.928 37.8567 269.492 25.8315 260.831 16.9239C250.903 6.23481 235.272 -0.000244141 212.671 -0.000244141H142.753V155.881V155.881ZM183.732 74.823V37.4114H210.559C224.289 37.4114 232.738 43.6467 232.738 55.8945V56.3401C232.738 67.6969 224.711 74.8232 210.77 74.8232H183.732L183.732 74.823Z" fill="white"/>
<path fill-rule="evenodd" clip-rule="evenodd" d="M246.025 106.871L214.502 128.796C234.056 144.46 254.459 153.969 277.551 138.144C260.808 136.546 254.349 122.742 246.025 106.871V106.871Z" fill="url(#paint0_linear)"/>
<path d="M10.4485 155.355H124.085C123.31 139.336 121.029 123.782 105.772 108.692C92.5848 120.29 87.1608 120.522 53.0039 121.566V0.526001H10.4485V155.355Z" fill="white"/>
<path fill-rule="evenodd" clip-rule="evenodd" d="M61.8692 121.284L65.2123 155.355C88.6959 146.643 107.429 136.656 105.771 108.692C94.9605 117.065 93.5342 120.479 61.8689 121.284L61.8692 121.284Z" fill="url(#paint1_linear)"/>
</g>
<defs>
<linearGradient id="paint0_linear" x1="254.851" y1="149.92" x2="231.172" y2="118.383" gradientUnits="userSpaceOnUse">
<stop stop-color="#A3A3A3"/>
<stop offset="1" stop-color="white" stop-opacity="0"/>
</linearGradient>
<linearGradient id="paint1_linear" x1="105.577" y1="138.895" x2="63.5427" y2="138.321" gradientUnits="userSpaceOnUse">
<stop stop-color="#A3A3A3"/>
<stop offset="1" stop-color="white"/>
</linearGradient>
<clipPath id="clip0">
<rect width="288" height="222" fill="white"/>
</clipPath>
</defs>
</svg>
