<svg width="608" height="537" viewBox="0 0 608 537" fill="none" xmlns="http://www.w3.org/2000/svg">
<path d="M8.2476 0.360228C3.89871 0.360228 0.361137 3.88931 0.361137 8.22479V399.41C0.361137 403.747 3.8983 407.275 8.2476 407.275H287.241C291.588 407.275 295.126 403.747 295.126 399.41V8.22479C295.126 3.88931 291.588 0.360228 287.241 0.360228H8.2476ZM287.241 407.636H8.2476C3.7 407.636 0 403.946 0 399.41V8.22479C0 3.69069 3.7 0 8.2476 0H287.241C291.787 0 295.487 3.69069 295.487 8.22479V399.41C295.487 403.946 291.787 407.636 287.241 407.636Z" fill="#E5E6E5"/>
<path d="M320.758 0.360228C316.411 0.360228 312.874 3.88931 312.874 8.22479V399.41C312.874 403.747 316.411 407.275 320.758 407.275H599.753C604.1 407.275 607.639 403.747 607.639 399.41V8.22479C607.639 3.88931 604.1 0.360228 599.753 0.360228H320.758ZM599.753 407.636H320.758C316.212 407.636 312.513 403.946 312.513 399.41V8.22479C312.513 3.69069 316.212 0 320.758 0H599.753C604.299 0 608 3.69069 608 8.22479V399.41C608 403.946 604.299 407.636 599.753 407.636Z" fill="#E5E6E5"/>
<path d="M18.887 485.996H56.4489V485.636H18.887V485.996Z" fill="#E5E6E5"/>
<path d="M154.518 482.085H219.574V481.724H154.518V482.085Z" fill="#E5E6E5"/>
<path d="M57.894 499.379H145.729V499.019H57.894V499.379Z" fill="#E5E6E5"/>
<path d="M565.33 496.958H593.121V496.597H565.33V496.958Z" fill="#E5E6E5"/>
<path d="M472.579 496.958H552.467V496.597H472.579V496.958Z" fill="#E5E6E5"/>
<path d="M316.184 490.873H423.777V490.513H316.184V490.873Z" fill="#E5E6E5"/>
<path d="M266.726 471.911H327.48V316.423H266.726V471.911Z" fill="#EAEAE9"/>
<path d="M49.3319 471.911H266.726V316.423H49.3319V471.911Z" fill="#EFEFEF"/>
<path d="M62.6533 456.765H98.9405V425.104H62.6533V456.765Z" fill="#FEFEFE"/>
<path d="M62.6533 413.483H98.9405V381.823H62.6533V413.483Z" fill="#E5E6E5"/>
<path d="M48.697 342.739H49.3319V338.593H48.697V342.739Z" fill="#E8E9E6"/>
<path d="M261.371 342.739H162.964C163.241 341.43 163.526 340.047 163.818 338.593H261.628L261.371 342.739ZM130.007 342.739H49.3324V338.593H130.539C130.357 340.013 130.181 341.398 130.008 342.739H130.007Z" fill="#DCDDDC"/>
<path d="M266.726 338.593H330.834V313.408H266.726V338.593Z" fill="#EAEAE9"/>
<path d="M45.9786 338.593H266.726V313.408H45.9786V338.593Z" fill="#EFEFEF"/>
<path d="M257.235 313.799H304.448V265.874H257.235V313.799Z" fill="#EAEAE9"/>
<path d="M92.8319 313.799H257.235V265.874H92.8319V313.799Z" fill="#EFEFEF"/>
<path d="M265.461 276.972H257.235V274.729H265.601L265.461 276.972Z" fill="#D7D9D9"/>
<path d="M92.3389 276.972H92.8311V274.729H92.3389V276.972Z" fill="#E8E9E6"/>
<path d="M257.235 276.972H174.519C174.639 276.222 174.76 275.473 174.879 274.729H257.235V276.972ZM138.088 276.972H92.8319V274.729H138.357C138.267 275.474 138.179 276.221 138.088 276.972Z" fill="#DCDDDC"/>
<path d="M257.235 274.729H307.054V263.532H257.235V274.729Z" fill="#EAEAE9"/>
<path d="M90.2266 274.729H257.235V263.532H90.2266V274.729Z" fill="#EFEFEF"/>
<path d="M360.054 471.911H406.275V238.618H360.054V471.911Z" fill="#E0E1E0"/>
<path d="M369.949 471.911H360.054V455.367H380.326L369.949 471.911Z" fill="#EAEAE9"/>
<path d="M514.236 471.911H560.459V238.618H514.236V471.911Z" fill="#E0E1E0"/>
<path d="M360.054 468.569H522.874V238.618H360.054V468.569Z" fill="#EAEAE9"/>
<path d="M367.73 311.872H515.195V248.81H367.73V311.872Z" fill="#E0E1E0"/>
<path d="M451.155 278.997C451.155 284.336 446.816 288.665 441.464 288.665C436.11 288.665 431.771 284.336 431.771 278.997C431.771 273.659 436.11 269.329 441.464 269.329C446.816 269.329 451.155 273.659 451.155 278.997Z" fill="#F7F7F6"/>
<path d="M512.977 471.911H522.874V455.367H502.599L512.977 471.911Z" fill="#EAEAE9"/>
<path d="M367.73 458.378H515.195V322.062H367.73V458.378Z" fill="#E0E1E0"/>
<path d="M504.52 342.379C504.52 347.718 500.181 352.047 494.828 352.047C489.477 352.047 485.136 347.718 485.136 342.379C485.136 337.041 489.477 332.711 494.828 332.711C500.181 332.711 504.52 337.041 504.52 342.379Z" fill="#F7F7F6"/>
<path d="M69.3503 212.647H544.758V23.8849H69.3503V212.647Z" fill="#E0E1E0"/>
<path d="M67.2505 212.647H542.658V23.8849H67.2505V212.647Z" fill="#EAEAE9"/>
<path d="M79.3477 200.579H530.561V35.952H79.3477V200.579Z" fill="#FEFEFE"/>
<path d="M131.966 104.551L116.091 131.981H147.844L131.966 104.551Z" fill="#E0E1E0"/>
<path d="M188.405 131.197H214.332V105.334H188.405V131.197Z" fill="#E0E1E0"/>
<path d="M270.772 101.724L253.336 114.361L259.997 134.807H281.547L288.208 114.361L270.772 101.724Z" fill="#E0E1E0"/>
<path d="M349.342 102.429H331.008L321.842 118.265L331.008 134.102H349.342L358.507 118.265L349.342 102.429Z" fill="#E0E1E0"/>
<path d="M409.577 100.883L395.245 107.769L391.704 123.24L401.624 135.646H417.532L427.451 123.24L423.91 107.769L409.577 100.883Z" fill="#E0E1E0"/>
<path d="M485.996 101.37H471.965L462.043 111.267V125.262L471.965 135.16H485.996L495.917 125.262V111.267L485.996 101.37Z" fill="#E0E1E0"/>
<path d="M586.139 520.681C586.139 529.694 460.72 537 306.004 537C151.289 537 25.8678 529.694 25.8678 520.681C25.8678 511.668 151.289 504.361 306.004 504.361C460.72 504.361 586.139 511.668 586.139 520.681Z" fill="#EFEFEF"/>
<path d="M290.701 107.445H528.596C533.673 107.445 537.566 111.587 537.251 116.65L517.857 428.423C517.542 433.486 513.131 437.629 508.056 437.629H270.161C265.085 437.629 261.19 433.486 261.505 428.423L280.9 116.65C281.214 111.587 285.625 107.445 290.701 107.445Z" fill="#81C41D"/>
<path d="M508.055 437.63H502.591C507.667 437.63 512.076 433.486 512.392 428.424L531.786 116.65C532.101 111.587 528.206 107.445 523.13 107.445H446.16H528.596C533.482 107.445 537.275 111.286 537.269 116.091C537.268 116.275 537.262 116.463 537.25 116.65L531.279 212.647L517.856 428.424C517.541 433.487 513.131 437.63 508.055 437.63H508.055Z" fill="#81C41D"/>
<path d="M285.234 107.445H523.131C528.206 107.445 532.102 111.587 531.787 116.65L512.393 428.423C512.076 433.486 507.667 437.629 502.591 437.629H264.697C259.621 437.629 255.726 433.486 256.039 428.423L275.434 116.65C275.749 111.587 280.16 107.445 285.234 107.445Z" fill="#81C41D"/>
<path d="M500.484 423.565L268.934 420.795L269.124 417.738C344.969 417.738 420.816 417.738 496.661 417.738C509.451 300.929 513.466 237.304 515.256 121.606H519.269L500.484 423.565V423.565Z" fill="#81C41D"/>
<path d="M262.17 417.739C340.333 417.739 418.498 417.739 496.661 417.739C509.585 299.697 513.55 235.969 515.313 117.927C437.149 117.927 358.984 117.927 280.819 117.927C279.058 235.969 275.094 299.697 262.17 417.739Z" fill="#FEFEFE"/>
<path d="M487.308 200.037H446.932C446.11 200.037 445.324 199.698 444.761 199.1C444.196 198.502 443.906 197.698 443.956 196.879L446.463 156.607C446.561 155.039 447.865 153.817 449.438 153.817H489.815C490.637 153.817 491.423 154.156 491.986 154.754C492.55 155.351 492.84 156.156 492.79 156.974L490.284 197.248C490.186 198.816 488.882 200.037 487.308 200.037ZM452.24 159.764L450.104 194.089H484.507L486.642 159.764H452.24Z" fill="#B4D0EC"/>
<path d="M483.492 261.384H443.117C442.294 261.384 441.508 261.044 440.945 260.446C440.381 259.848 440.091 259.045 440.142 258.225L442.645 217.951C442.745 216.383 444.047 215.161 445.622 215.161H485.997C486.82 215.161 487.605 215.501 488.169 216.099C488.734 216.697 489.024 217.502 488.974 218.32L486.467 258.594C486.368 260.162 485.067 261.384 483.492 261.384ZM448.423 221.109L446.289 255.436H480.689L482.826 221.109H448.423Z" fill="#B4D0EC"/>
<path d="M479.676 322.728H439.301C438.477 322.728 437.693 322.389 437.129 321.791C436.564 321.194 436.274 320.389 436.324 319.571L438.831 279.295C438.93 277.727 440.232 276.507 441.806 276.507H482.18C483.004 276.507 483.79 276.846 484.352 277.444C484.917 278.041 485.207 278.846 485.156 279.665L482.653 319.94C482.553 321.507 481.251 322.728 479.676 322.728ZM444.609 282.454L442.472 316.781H476.875L479.009 282.454H444.609Z" fill="#B4D0EC"/>
<path d="M475.861 384.073H435.485C434.663 384.073 433.877 383.733 433.314 383.135C432.75 382.538 432.458 381.733 432.51 380.915L435.014 340.641C435.112 339.073 436.416 337.851 437.99 337.851H478.366C479.188 337.851 479.974 338.191 480.537 338.789C481.101 339.387 481.392 340.19 481.34 341.01L478.835 381.284C478.737 382.852 477.433 384.073 475.861 384.073ZM440.792 343.798L438.656 378.126H473.058L475.194 343.798H440.792Z" fill="#B4D0EC"/>
<path d="M411.722 171.66H320.282C317.506 171.66 315.375 169.394 315.547 166.626C315.721 163.857 318.132 161.592 320.908 161.592H412.349C415.125 161.592 417.256 163.858 417.082 166.626C416.91 169.395 414.499 171.66 411.722 171.66Z" fill="#B4D0EC"/>
<path d="M410.442 192.263H336.388C333.611 192.263 331.482 189.999 331.654 187.229C331.827 184.46 334.239 182.195 337.014 182.195H411.067C413.843 182.195 415.974 184.461 415.8 187.229C415.629 189.999 413.217 192.263 410.442 192.263Z" fill="#B4D0EC"/>
<path d="M406.624 253.607H315.184C312.409 253.607 310.277 251.343 310.45 248.574C310.622 245.805 313.035 243.541 315.81 243.541H407.252C410.027 243.541 412.157 245.805 411.985 248.574C411.813 251.344 409.401 253.607 406.624 253.607Z" fill="#B4D0EC"/>
<path d="M407.906 233.004H333.853C331.077 233.004 328.948 230.739 329.12 227.97C329.293 225.201 331.705 222.936 334.48 222.936H408.533C411.309 222.936 413.438 225.202 413.266 227.97C413.094 230.739 410.683 233.004 407.906 233.004Z" fill="#B4D0EC"/>
<path d="M404.09 294.35H312.65C309.873 294.35 307.743 292.084 307.916 289.315C308.087 286.547 310.5 284.28 313.276 284.28H404.717C407.493 284.28 409.623 286.547 409.451 289.315C409.279 292.084 406.867 294.35 404.09 294.35Z" fill="#B4D0EC"/>
<path d="M402.809 314.953H366.016C363.24 314.953 361.111 312.687 361.283 309.919C361.455 307.15 363.866 304.885 366.643 304.885H403.436C406.212 304.885 408.341 307.15 408.169 309.919C407.997 312.687 405.584 314.953 402.809 314.953Z" fill="#B4D0EC"/>
<path d="M348.16 314.953H328.756C325.98 314.953 323.85 312.687 324.022 309.919C324.194 307.15 326.606 304.885 329.383 304.885H348.787C351.562 304.885 353.692 307.15 353.52 309.919C353.348 312.687 350.936 314.953 348.16 314.953Z" fill="#B4D0EC"/>
<path d="M400.275 355.694H308.833C306.057 355.694 303.928 353.428 304.1 350.66C304.272 347.891 306.685 345.626 309.46 345.626H400.9C403.677 345.626 405.807 347.892 405.633 350.66C405.462 353.429 403.05 355.694 400.275 355.694Z" fill="#B4D0EC"/>
<path d="M398.993 376.297H324.94C322.164 376.297 320.033 374.033 320.207 371.265C320.378 368.494 322.79 366.231 325.567 366.231H399.618C402.394 366.231 404.525 368.495 404.353 371.265C404.181 374.033 401.768 376.297 398.993 376.297Z" fill="#B4D0EC"/>
<path d="M465.098 189.015C464.519 189.015 463.934 188.846 463.419 188.496L447.863 177.894C446.503 176.968 446.153 175.118 447.084 173.762C448.01 172.406 449.861 172.056 451.226 172.985L464.517 182.042C469.367 176.204 483.213 160.372 494.728 155.25C496.225 154.583 497.994 155.254 498.665 156.756C499.336 158.255 498.66 160.015 497.155 160.683C484.584 166.272 467.613 187.663 467.443 187.878C466.857 188.621 465.985 189.014 465.097 189.014L465.098 189.015Z" fill="#81C41D"/>
<path d="M457.851 249.169C457.104 249.169 456.358 248.89 455.782 248.335L442.239 235.314C441.055 234.174 441.019 232.292 442.161 231.11C443.306 229.928 445.193 229.895 446.376 231.032L457.906 242.118C463.606 237.032 479.601 223.476 491.652 220.189C493.24 219.754 494.88 220.689 495.314 222.273C495.748 223.857 494.814 225.491 493.224 225.925C480.044 229.519 460.094 248.171 459.895 248.36C459.32 248.898 458.584 249.168 457.851 249.168V249.169Z" fill="#81C41D"/>
<path d="M445.694 117.927C445.374 117.927 445.054 117.927 444.734 117.927C444.756 117.804 444.775 117.683 444.792 117.561L445.891 109.434L445.844 116.37C445.839 116.902 445.789 117.421 445.693 117.927H445.694Z" fill="#81C41D"/>
<path d="M439.812 124.657C442.307 123.258 444.223 120.772 444.734 117.927C445.053 117.927 445.374 117.927 445.694 117.927C445.101 121.083 442.808 123.654 439.812 124.657Z" fill="#919697"/>
<path d="M366.036 92.8626H439.813C444.389 92.8626 447.628 96.5981 447.011 101.164L444.792 117.56C444.174 122.126 439.923 125.862 435.346 125.862H361.57C356.993 125.862 353.755 122.126 354.372 117.56L356.592 101.164C357.21 96.5981 361.461 92.8626 366.036 92.8626Z" fill="#81C41D"/>
<path d="M435.346 125.862H361.571C357.369 125.862 354.296 122.714 354.297 118.665C354.297 118.304 354.322 117.935 354.372 117.56L356.592 101.164C357.21 96.5981 361.461 92.8626 366.037 92.8626H439.814C444.014 92.8626 447.088 96.0105 447.087 100.059C447.087 100.42 447.062 100.789 447.012 101.164L444.793 117.56C444.174 122.126 439.923 125.862 435.346 125.862ZM404.736 96.3329C403.501 96.3329 402.501 97.3317 402.501 98.5621C402.501 99.7945 403.501 100.792 404.736 100.792H437.898C439.133 100.792 440.133 99.7945 440.133 98.5621C440.133 97.3317 439.133 96.3329 437.898 96.3329H404.736ZM390.122 96.3329C388.887 96.3329 387.887 97.3317 387.887 98.5621C387.887 99.7945 388.887 100.792 390.122 100.792H393.621C394.855 100.792 395.854 99.7945 395.854 98.5621C395.854 97.3317 394.855 96.3329 393.621 96.3329H390.122Z" fill="#A0C2E6"/>
<path d="M437.898 100.792H404.736C403.501 100.792 402.501 99.795 402.501 98.5626C402.501 97.3322 403.501 96.3334 404.736 96.3334H437.898C439.133 96.3334 440.133 97.3322 440.133 98.5626C440.133 99.795 439.133 100.792 437.898 100.792Z" fill="#CBDDF1"/>
<path d="M393.621 100.792H390.121C388.886 100.792 387.887 99.795 387.887 98.5626C387.887 97.3322 388.886 96.3334 390.121 96.3334H393.621C394.855 96.3334 395.854 97.3322 395.854 98.5626C395.854 99.795 394.855 100.792 393.621 100.792Z" fill="#CBDDF1"/>
<path d="M189.639 420.398L203.9 423.111L237.611 264.981L216.673 260.996L189.639 420.398Z" fill="#81C41D"/>
<path d="M239.761 155.193L256.834 149.598L258.017 143.411L242.108 142.922L239.761 155.193Z" fill="#2C3C43"/>
<path d="M239.331 151.593L258.777 145.284L238.792 258.795L217.857 254.811L239.331 151.593Z" fill="#81C41D"/>
<path d="M217.524 261.158L236.759 264.82L237.943 258.634L218.708 254.972L217.524 261.158Z" fill="#2C3C43"/>
<path d="M192.203 439.113C192.023 440.049 192.417 440.913 193.081 441.038C193.745 441.165 194.429 440.508 194.608 439.57C194.788 438.634 194.394 437.771 193.73 437.645C193.067 437.519 192.383 438.176 192.203 439.113Z" fill="#81C41D"/>
<path d="M191.227 439.231L195.472 440.039L203.9 423.111L189.639 420.398L191.227 439.231Z" fill="#2C3C43"/>
<path d="M216.915 226.072C216.662 226.072 216.402 226.017 216.156 225.903C215.256 225.486 214.868 224.416 215.286 223.518C224.239 204.373 231.509 164.367 232.486 154.854C232.773 152.048 234.569 149.608 237.171 148.492L241.896 146.461C242.808 146.067 243.866 146.486 244.259 147.396C244.652 148.307 244.231 149.362 243.32 149.754L238.594 151.786C237.188 152.389 236.219 153.705 236.064 155.22C235.038 165.211 227.819 205.205 218.546 225.036C218.241 225.688 217.592 226.072 216.914 226.072H216.915Z" fill="#2C3C43"/>
<path d="M150.358 149.652C146.757 155.799 143.119 162.325 139.706 168.728C138.011 171.954 136.37 175.192 134.787 178.434C133.265 181.692 131.747 184.946 130.446 188.204L130.201 188.798L130.17 188.811C130.138 188.845 130.098 188.957 130.066 189.113C129.991 189.426 129.962 189.932 129.97 190.524C129.986 191.719 130.223 193.219 130.579 194.754C131.326 197.851 132.429 201.198 133.752 204.494C135.038 207.82 136.514 211.151 138.044 214.484C139.54 217.822 141.214 221.18 142.801 224.431L135.939 229.106C130.827 223.121 126.317 216.907 122.332 209.985C120.392 206.499 118.508 202.907 117.069 198.794C116.351 196.726 115.702 194.548 115.334 191.996C115.15 190.716 115.066 189.333 115.162 187.772C115.214 186.992 115.311 186.169 115.505 185.289C115.585 184.867 115.732 184.389 115.858 183.946L116.092 183.21C118.458 175.525 121.494 168.305 124.843 161.287C128.235 154.253 131.863 147.572 136.091 140.849L150.357 149.652H150.358Z" fill="#F8B8B8"/>
<path d="M141.801 222.372L148.255 227.386L138.394 235.51C138.394 235.51 133.894 231.171 134.589 225.868L141.802 222.373L141.801 222.372Z" fill="#F8B8B8"/>
<path d="M150.885 234.708L144.316 243.14L138.394 235.51L148.255 227.386L150.885 234.708Z" fill="#F8B8B8"/>
<path d="M187.589 89.5783C187.768 90.4505 188.374 91.0628 188.947 90.9476C189.517 90.8321 189.838 90.0294 189.661 89.1576C189.483 88.2842 188.875 87.6706 188.303 87.7886C187.73 87.9038 187.411 88.7048 187.589 89.5783Z" fill="#2C3C43"/>
<path d="M188.294 91.08C188.294 91.08 191.31 95.7108 193.994 97.6965C192.74 99.4492 189.975 99.3237 189.975 99.3237L188.294 91.08Z" fill="#F48684"/>
<path d="M183.399 85.3814L183.044 85.2416C182.831 85.0454 182.817 84.7156 183.014 84.5022C184.983 82.3795 187.372 82.7557 187.475 82.773C187.76 82.8207 187.952 83.0917 187.903 83.3767C187.855 83.6592 187.58 83.8492 187.302 83.8048C187.222 83.7916 185.355 83.5198 183.783 85.2128C183.681 85.325 183.541 85.381 183.399 85.381V85.3814Z" fill="#2C3C43"/>
<path d="M162.67 101.85C164.258 109.928 165.841 124.724 160.177 130.115C160.177 130.115 162.39 138.306 177.435 138.306C193.977 138.306 185.341 130.115 185.341 130.115C176.312 127.964 176.545 121.283 178.117 115.006L162.671 101.85H162.67Z" fill="#F8B8B8"/>
<path d="M156.976 130.721C155.772 127.871 158.35 119.225 161.094 118.38C164.111 117.449 175.584 117.97 181.278 120.345C185.326 124.438 186.496 132.938 186.496 132.938L156.976 130.722V130.721Z" fill="#2C3C43"/>
<path d="M111.522 506.359L111.829 506.459C112.038 506.559 112.168 506.704 112.229 506.906C112.367 507.376 112.194 507.525 112.136 507.573C111.541 508.079 109.33 507.612 107.774 506.992C108.83 506.621 110.538 506.146 111.522 506.358V506.359ZM109.72 508.123C110.831 508.364 111.942 508.425 112.475 507.971C112.699 507.781 112.926 507.417 112.73 506.758C112.628 506.41 112.399 506.152 112.055 505.986C110.561 505.276 107.127 506.672 106.981 506.731L106.819 506.966L106.967 507.208C107.493 507.462 108.607 507.882 109.721 508.122L109.72 508.123Z" fill="#81C41D"/>
<path d="M110.158 503.327L110.272 503.359C110.596 503.471 110.592 503.63 110.59 503.696C110.571 504.437 108.806 505.926 107.51 506.529C107.833 505.646 108.573 503.907 109.521 503.424C109.738 503.313 109.947 503.28 110.158 503.328V503.327ZM107.026 507.23L107.154 507.224C108.405 506.86 111.083 504.963 111.115 503.711C111.121 503.484 111.043 503.072 110.444 502.864C110.057 502.731 109.667 502.763 109.283 502.958C107.804 503.711 106.869 506.767 106.83 506.899L106.895 507.158L107.026 507.23H107.026Z" fill="#81C41D"/>
<path d="M191.369 507.834C191.554 507.834 191.724 507.852 191.876 507.895C192.117 507.96 192.285 508.079 192.389 508.259C192.575 508.583 192.507 508.745 192.439 508.837C191.925 509.551 189.128 509.568 187.07 509.278C188.097 508.752 190.076 507.834 191.369 507.834ZM189.613 509.975C191.034 509.975 192.406 509.78 192.866 509.143C193.027 508.921 193.153 508.542 192.844 508C192.671 507.697 192.39 507.491 192.013 507.389C190.17 506.889 186.303 509.088 186.14 509.181L186.011 509.452L186.219 509.664C186.926 509.806 188.29 509.975 189.613 509.975Z" fill="#81C41D"/>
<path d="M188.97 505.196L189.127 505.201C189.6 505.25 189.63 505.436 189.639 505.497C189.761 506.246 187.963 508.123 186.599 508.938C186.743 508.071 187.137 506.291 188.062 505.534C188.339 505.307 188.638 505.196 188.97 505.196ZM186.27 509.671L186.378 509.646C187.713 509.048 190.358 506.661 190.156 505.413C190.11 505.121 189.901 504.756 189.181 504.683C188.643 504.628 188.157 504.779 187.728 505.131C186.321 506.284 186.021 509.258 186.01 509.384L186.117 509.622L186.27 509.671Z" fill="#81C41D"/>
<path d="M174.1 509.408H185.168L186.27 483.843H175.203L174.1 509.408Z" fill="#F8B8B8"/>
<path d="M94.2301 504.296L105.344 506.634L113.185 482.821L102.073 480.485L94.2301 504.296Z" fill="#F8B8B8"/>
<path d="M106.545 505.55L94.3934 502.926C93.9498 502.831 93.5005 503.054 93.3125 503.463L89.093 512.592C88.6556 513.54 89.2353 514.65 90.2609 514.855C94.5187 515.698 96.634 515.894 101.979 517.048C105.265 517.758 112.688 519.561 117.227 520.543C121.668 521.502 123.333 517.173 121.561 516.366C113.622 512.748 110.305 509.563 108.157 506.593C107.769 506.058 107.191 505.69 106.544 505.551L106.545 505.55Z" fill="#2C3C43"/>
<path d="M185.095 508.131L173.009 508.13C172.555 508.13 172.164 508.443 172.066 508.883L169.879 518.697C169.653 519.714 170.427 520.678 171.472 520.661C175.832 520.586 182.132 520.331 187.612 520.331C194.02 520.331 191.532 520.681 199.045 520.681C203.589 520.681 204.85 516.098 202.948 515.683C194.29 513.793 195.242 513.592 187.761 508.99C186.948 508.49 186.05 508.131 185.095 508.131H185.095Z" fill="#2C3C43"/>
<path d="M140.361 132.609C129.988 134.981 121.435 161.396 121.435 161.396L142.265 177.233C142.265 177.233 149.911 170.043 153.314 156.83C156.879 142.986 150.968 130.185 140.361 132.609Z" fill="#2C3C43"/>
<path d="M142.26 177.236L141.581 176.714L142.265 177.233C142.262 177.234 142.26 177.236 142.26 177.236ZM148.664 168.488C150.393 165.381 152.116 161.478 153.314 156.83C153.526 156.001 153.707 155.177 153.853 154.36L153.861 154.364C153.709 155.174 153.529 156.003 153.318 156.829C152.12 161.476 150.397 165.381 148.664 168.488Z" fill="#C2C4C4"/>
<path d="M142.265 177.233L141.581 176.714L141.342 176.528C141.778 167.722 143.616 157.595 149.251 152.035L153.853 154.36C153.706 155.177 153.526 156.002 153.314 156.83C152.116 161.478 150.394 165.381 148.664 168.488C145.539 174.097 142.389 177.113 142.265 177.233Z" fill="#28343A"/>
<path d="M202.364 133.179C202.364 133.179 214.144 146.45 203.02 228.598C185.182 228.598 152.503 228.598 143.823 228.598C143.416 219.535 149.125 175.317 140.361 132.609C140.361 132.609 150.508 130.579 160.177 130.115C167.74 129.75 178.691 129.509 185.341 130.115C194.107 130.911 202.364 133.179 202.364 133.179H202.364Z" fill="#2C3C43"/>
<path d="M185.702 497.028L185.803 494.675L185.702 497.028ZM174.635 497.028H174.629L175.196 483.85H175.203L174.635 497.028Z" fill="#C2C4C4"/>
<path d="M185.702 497.028H174.635L175.203 483.85H186.267L185.803 494.675L185.702 497.028Z" fill="#D79995"/>
<path d="M98.0273 492.766L98.0203 492.764L98.8308 490.306L98.8382 490.308L98.0273 492.766Z" fill="#C2C4C4"/>
<path d="M109.138 495.101L98.0272 492.766L98.8381 490.308L109.928 492.704L109.138 495.101Z" fill="#D79995"/>
<path d="M158.035 93.644C160.879 104.227 162.004 110.564 168.551 114.965C178.399 121.584 190.659 113.987 191.043 102.771C191.388 92.674 186.682 77.0629 175.296 74.9311C164.079 72.8302 155.192 83.0597 158.035 93.6436V93.644Z" fill="#F8B8B8"/>
<path d="M168.611 113.739H168.47C164.998 113.743 161.731 112.104 159.705 109.291C156.377 104.672 151.714 96.6463 151.179 87.3791C155.392 82.9358 171.249 80.0117 178.31 81.6142C184.194 82.9519 183.338 99.6609 177.773 108.686C175.825 111.844 172.329 113.724 168.611 113.738L168.611 113.739Z" fill="#F8B8B8"/>
<path d="M168.457 113.739C164.989 113.739 161.728 112.1 159.705 109.291C156.377 104.672 151.714 96.6463 151.179 87.379C154.596 83.7759 165.675 81.1705 173.505 81.1705C175.33 81.1705 176.977 81.3119 178.31 81.6146C181.073 82.2429 182.35 86.2622 182.35 91.2848C182.351 96.9531 180.724 103.9 177.773 108.686C175.825 111.845 172.328 113.724 168.611 113.739H168.469C168.465 113.739 168.46 113.739 168.456 113.739H168.457Z" fill="#545459"/>
<path d="M157.6 91.1433C152.614 90.7876 149.794 87.6587 148.891 84.9784C147.631 81.2354 148.972 73.3277 156.517 73.0884C164.061 72.8478 164.865 68.565 162.537 67.6841C167.474 68.0444 165.908 71.4875 165.908 71.4875C167.233 71.5685 168.477 67.965 175.981 68.245C183.487 68.5247 187.219 66.9234 186.257 65.2427C189.829 65.9632 188.825 70.2867 185.815 71.4472C185.815 71.4472 192.958 76.8514 194.644 73.8903C195.848 76.052 193.482 78.6374 184.451 77.4646C188.053 82.4868 179.526 81.36 175.894 83.6427C172.261 85.9242 162.587 91.5003 157.601 91.1442L157.6 91.1433Z" fill="#2C3C43"/>
<path d="M176.087 93.1468C176.809 95.9254 178.638 98.3134 180.553 99.7358C183.433 101.872 185.584 99.7687 185.38 96.518C185.195 93.591 183.474 88.9528 180.297 88.0868C177.167 87.231 175.26 89.9718 176.087 93.1468Z" fill="#F8B8B8"/>
<path d="M182.02 228.598C182.02 228.598 169.461 312.964 162.565 344.571C155.014 379.182 114.526 493.696 114.526 493.696L94.7131 489.417C94.7131 489.417 123.026 396.096 129.363 347.708C134.23 310.54 143.823 228.598 143.823 228.598H182.02Z" fill="#2C3C43"/>
<path d="M119.269 487.099L115.576 494.245L93.2867 489.432L95.165 482.747L119.269 487.099Z" fill="#81C41D"/>
<path d="M162.843 343.306C162.843 343.3 162.842 343.292 162.842 343.285C162.881 343.105 162.92 342.924 162.959 342.739H162.963C162.924 342.929 162.884 343.12 162.843 343.306Z" fill="#A3A5A7"/>
<path d="M162.964 342.739H162.959C163.235 341.43 163.521 340.045 163.813 338.593H163.817C163.525 340.047 163.241 341.43 162.964 342.739Z" fill="#989B9B"/>
<path d="M163.818 338.593H163.813C165.218 331.606 166.785 323.036 168.395 313.798C166.787 323.039 165.22 331.606 163.818 338.593Z" fill="#A3A5A7"/>
<path d="M168.394 313.8C168.4 313.766 168.406 313.733 168.412 313.699C168.406 313.731 168.4 313.766 168.394 313.8Z" fill="#A3A5A7"/>
<path d="M162.842 343.285C161.095 315.494 159.564 261.496 174.081 258.657C174.467 258.581 174.839 258.545 175.197 258.545C175.974 258.545 176.69 258.719 177.351 259.049C174.799 275.39 171.527 295.801 168.412 313.7C168.406 313.732 168.4 313.766 168.395 313.799C166.785 323.037 165.217 331.606 163.813 338.593C163.521 340.046 163.235 341.431 162.959 342.739C162.92 342.924 162.881 343.105 162.842 343.285V343.285Z" fill="#273035"/>
<path d="M203.02 228.598C203.02 228.598 204.543 311.138 203.339 344.804C202.088 379.819 189.826 494.476 189.826 494.476H171.078C171.078 494.476 170.389 381.866 169.555 347.476C168.646 309.983 164.108 228.598 164.108 228.598H203.02Z" fill="#2C3C43"/>
<path d="M193.433 487.027L192.376 494.791H169.57L168.952 487.861L193.433 487.027Z" fill="#81C41D"/>
<path d="M202.636 131.715C205.54 132.922 208.327 135.07 209.163 142.196C209.968 149.049 208.409 209.043 206.524 228.201C206.392 229.53 205.423 230.772 204.088 230.829C192.25 231.341 155.593 226.399 143.224 228.571C141.806 228.82 140.535 227.248 140.609 225.804C141.583 207.135 140.183 177.025 137.894 157.888C136.4 145.398 136.389 132.33 146.906 130.107C154.677 128.464 191.336 127.019 202.636 131.714V131.715Z" fill="#81C41D"/>
<path d="M207.22 148.301C207.88 151.465 208.598 154.916 209.388 158.2C210.198 161.512 211.005 164.816 211.925 168.052C212.827 171.292 213.804 174.482 214.913 177.521C215.997 180.55 217.228 183.496 218.599 185.868C219.262 187.036 219.978 188.086 220.531 188.692C220.801 188.999 221.019 189.189 221.07 189.255C221.077 189.274 221.051 189.381 221.357 189.476C221.868 189.696 222.997 189.885 224.284 189.842C225.581 189.801 227.048 189.635 228.564 189.383C234.646 188.278 241.365 186.037 247.722 183.758L251.928 190.906C245.916 195.558 239.688 199.416 232.097 202.207C230.188 202.895 228.172 203.484 225.941 203.865C223.709 204.23 221.237 204.486 218.265 203.985C216.822 203.757 215.127 203.205 213.569 202.392C212.078 201.578 210.9 200.653 209.89 199.734C207.877 197.881 206.497 196.035 205.258 194.217C200.606 186.95 198.153 179.913 195.852 172.788C194.763 169.228 193.766 165.676 192.939 162.091C192.095 158.48 191.315 155.004 190.697 151.197L207.219 148.3L207.22 148.301Z" fill="#F8B8B8"/>
<path d="M182.875 143.973C173.885 162.007 195.244 182.384 195.244 182.384L219.054 169.981C219.054 169.981 216.539 154.587 210.92 142.137C203.98 126.755 188.044 133.602 182.874 143.973H182.875Z" fill="#2C3C43"/>
<path d="M245.522 184.824L253.599 179.529L256.958 191.58C256.958 191.58 253.333 195.797 246.722 191.199L245.522 184.824Z" fill="#F8B8B8"/>
<path d="M260.634 184.401L260.376 186.929C260.252 188.149 259.661 189.277 258.724 190.072L256.958 191.58L253.599 179.529L254.631 179.262C257.879 178.423 260.971 181.071 260.633 184.401H260.634Z" fill="#F8B8B8"/>
</svg>
